<svg width="449.083496" height="87.071533" viewBox="0 0 449.083 87.0715" fill="none" xmlns="http://www.w3.org/2000/svg" xmlns:xlink="http://www.w3.org/1999/xlink">
	<desc>
			Created with Pixso.
	</desc>
	<defs/>
	<mask id="mask1_135" mask-type="alpha" maskUnits="userSpaceOnUse" x="0.000000" y="0.000000" width="449.083496" height="87.071533">
		<g style="mix-blend-mode:normal">
			<rect id="Rectangle 22" width="449.083496" height="87.071571" fill="#C4C4C4" fill-opacity="1.000000"/>
		</g>
	</mask>
	<g mask="url(#mask1_135)">
		<g style="mix-blend-mode:normal">
			<path id="Path 93" d="M82.73 26.4L63.46 14.5L66.64 38.32L71.45 30.87C72.6 36.3 72.59 42.06 71.15 47.8C66.11 67.92 45.71 80.15 25.59 75.11C15.07 72.47 6.71 65.63 1.85 56.83C5.31 70.65 16.08 82.16 30.86 85.86C52.23 91.21 73.9 78.23 79.25 56.86C81.76 46.82 80.22 36.72 75.67 28.27L82.73 26.4Z" fill="#D1AA2A" fill-opacity="1.000000" fill-rule="evenodd"/>
		</g>
	</g>
	<g mask="url(#mask1_135)">
		<g style="mix-blend-mode:normal">
			<path id="Path 94" d="M53.77 60.23C53.91 59.87 54.06 59.53 54.26 59.2C51.41 61.19 48.19 62.73 44.63 63.62C28.91 67.55 12.98 58 9.04 42.29C7.92 37.8 7.91 33.3 8.81 29.07L12.56 34.88L15.05 16.27L0 25.57L5.52 27.04C1.96 33.64 0.75 41.52 2.72 49.37C6.9 66.06 23.82 76.2 40.51 72.02C44.44 71.04 47.98 69.33 51.07 67.1C50.23 64.55 51.13 61.37 53.77 60.23Z" fill="#FFDE00" fill-opacity="1.000000" fill-rule="evenodd"/>
		</g>
	</g>
	<g mask="url(#mask1_135)">
		<g style="mix-blend-mode:normal">
			<path id="Path 95" d="M21.45 22.84C21.3 22.84 21.15 22.78 21.03 22.67C20.78 22.43 20.76 22.03 21 21.78L36.24 6.38C36.38 6.23 36.59 6.16 36.8 6.19C37 6.23 37.18 6.36 37.26 6.55L44.11 16.57L59.64 2.55C59.87 2.29 60.26 2.27 60.52 2.49C60.78 2.72 60.81 3.12 60.58 3.38L44.42 18.11C44.29 18.27 44.08 18.34 43.87 18.32C43.66 18.29 43.48 18.15 43.39 17.96L36.52 7.91L21.91 22.64C21.79 22.77 21.62 22.84 21.45 22.84Z" fill="#FFDE00" fill-opacity="1.000000" fill-rule="nonzero"/>
		</g>
	</g>
	<g mask="url(#mask1_135)">
		<g style="mix-blend-mode:normal">
			<path id="Path 96" d="M23.49 22.48C23.49 23.78 22.44 24.83 21.15 24.82C19.85 24.82 18.8 23.77 18.81 22.47C18.81 21.18 19.86 20.13 21.16 20.14C22.45 20.14 23.5 21.19 23.49 22.48Z" fill="#FFDE00" fill-opacity="1.000000" fill-rule="nonzero"/>
		</g>
	</g>
	<g mask="url(#mask1_135)">
		<g style="mix-blend-mode:normal">
			<path id="Path 97" d="M38.56 7.56C38.56 8.85 37.51 9.9 36.21 9.9C34.92 9.89 33.87 8.84 33.88 7.55C33.88 6.25 34.93 5.21 36.23 5.21C37.52 5.21 38.57 6.27 38.56 7.56Z" fill="#FFDE00" fill-opacity="1.000000" fill-rule="nonzero"/>
		</g>
	</g>
	<g mask="url(#mask1_135)">
		<g style="mix-blend-mode:normal">
			<path id="Path 98" d="M63.08 2.34C63.07 3.64 62.02 4.68 60.73 4.68C59.43 4.68 58.39 3.63 58.39 2.33C58.39 1.04 59.45 -0.01 60.74 -0.01C62.03 0 63.08 1.05 63.08 2.34Z" fill="#FFDE00" fill-opacity="1.000000" fill-rule="nonzero"/>
		</g>
	</g>
	<g mask="url(#mask1_135)">
		<g style="mix-blend-mode:normal">
			<path id="Path 99" d="M46.2 17.22C46.2 18.52 45.14 19.56 43.85 19.56C42.56 19.55 41.51 18.5 41.51 17.21C41.52 15.91 42.57 14.87 43.86 14.87C45.16 14.88 46.2 15.93 46.2 17.22Z" fill="#FFDE00" fill-opacity="1.000000" fill-rule="nonzero"/>
		</g>
	</g>
	<g mask="url(#mask1_135)">
		<g style="mix-blend-mode:normal">
			<path id="Path 100" d="M39.53 31.77C41.89 31.77 43.8 29.86 43.8 27.5C43.8 25.14 41.89 23.23 39.53 23.23C37.17 23.23 35.26 25.14 35.26 27.5C35.26 29.86 37.17 31.77 39.53 31.77Z" fill="#888888" fill-opacity="1.000000" fill-rule="nonzero"/>
		</g>
	</g>
	<g mask="url(#mask1_135)">
		<g style="mix-blend-mode:normal">
			<path id="Path 101" d="M50.44 39.07C51.01 38.97 54.11 38.48 54.26 38.57C49.97 35.82 44.97 33.8 39.82 33.7C34.55 33.61 29.18 35.77 24.8 38.57C24.95 38.48 28.05 38.97 28.62 39.07C31.95 39.68 34.45 41.94 35.59 45.11C37.67 50.88 38.6 57.36 39.53 63.38C40.46 57.36 41.39 50.88 43.47 45.11C44.61 41.94 47.11 39.68 50.44 39.07Z" fill="#888888" fill-opacity="1.000000" fill-rule="nonzero"/>
		</g>
	</g>
	<g mask="url(#mask1_135)">
		<g style="mix-blend-mode:normal">
			<path id="Path 102" d="M63.43 49.03C60 45.04 55.2 41.74 49.86 41.26C48.22 41.81 47.07 42.9 46.09 44.19L46.52 44.55C47.17 45.28 47.78 46.05 48.17 46.95C49.15 49.14 49.27 51.59 49.46 53.94C49.41 59.64 48.77 65.47 49.99 71.1C51.5 66.01 52.79 60.5 56.36 56.37C57.84 54.54 60.33 53.33 62.68 54.05C65.05 54.52 66.67 56.43 68.76 57.46C67.61 54.32 65.56 51.58 63.43 49.03Z" fill="#FFFFFF" fill-opacity="1.000000" fill-rule="nonzero"/>
		</g>
	</g>
	<g mask="url(#mask1_135)">
		<g style="mix-blend-mode:normal">
			<path id="Path 103" d="M60.35 43.23C62.63 43.23 64.48 41.38 64.48 39.1C64.48 36.81 62.63 34.96 60.35 34.96C58.06 34.96 56.21 36.81 56.21 39.1C56.21 41.38 58.06 43.23 60.35 43.23Z" fill="#FFFFFF" fill-opacity="1.000000" fill-rule="nonzero"/>
		</g>
	</g>
	<g mask="url(#mask1_135)">
		<g style="mix-blend-mode:normal">
			<path id="Path 104" d="M28.99 41.26C23.65 41.74 18.85 45.04 15.43 49.03C13.29 51.58 11.24 54.32 10.09 57.46C12.19 56.43 13.8 54.52 16.17 54.05C18.52 53.33 21.01 54.54 22.49 56.37C26.06 60.5 27.35 66.01 28.86 71.1C30.08 65.47 29.45 59.64 29.39 53.94C29.59 51.59 29.7 49.14 30.69 46.95C31.08 46.05 31.68 45.28 32.33 44.55L32.77 44.19C31.79 42.9 30.64 41.81 28.99 41.26Z" fill="#FFFFFF" fill-opacity="1.000000" fill-rule="nonzero"/>
		</g>
	</g>
	<g mask="url(#mask1_135)">
		<g style="mix-blend-mode:normal">
			<path id="Path 105" d="M18.51 43.23C20.79 43.23 22.64 41.38 22.64 39.1C22.64 36.81 20.79 34.96 18.51 34.96C16.22 34.96 14.37 36.81 14.37 39.1C14.37 41.38 16.22 43.23 18.51 43.23Z" fill="#FFFFFF" fill-opacity="1.000000" fill-rule="nonzero"/>
		</g>
	</g>
	<g mask="url(#mask1_135)">
		<g style="mix-blend-mode:normal">
			<path id="Path 106" d="M88.63 39.75L94.94 39.75L100.49 57.89L106.5 39.67L111.55 39.67L117.56 57.89L123.11 39.75L129.27 39.75L120.13 66.73L115 66.73L108.95 49.2L102.9 66.73L97.78 66.73L88.63 39.75Z" fill="#FFFFFF" fill-opacity="1.000000" fill-rule="nonzero"/>
		</g>
	</g>
	<g mask="url(#mask1_135)">
		<g style="mix-blend-mode:normal">
			<path id="Path 107" d="M128.28 56.4C128.28 50.54 132.45 45.64 138.42 45.64C145.27 45.64 148.41 50.96 148.41 56.78C148.41 57.24 148.37 57.77 148.33 58.31L134.06 58.31C134.63 60.95 136.47 62.33 139.07 62.33C141.02 62.33 142.44 61.72 144.04 60.22L147.37 63.17C145.46 65.54 142.7 67 138.99 67C132.83 67 128.28 62.67 128.28 56.4ZM142.74 54.67C142.4 52.07 140.87 50.31 138.42 50.31C136.01 50.31 134.44 52.03 133.98 54.67L142.74 54.67Z" fill="#FFFFFF" fill-opacity="1.000000" fill-rule="nonzero"/>
		</g>
	</g>
	<g mask="url(#mask1_135)">
		<g style="mix-blend-mode:normal">
			<path id="Path 108" d="M150.74 60.65C150.74 56.17 154.15 54.02 159.01 54.02C161.07 54.02 162.57 54.37 164.02 54.87L164.02 54.52C164.02 52.11 162.53 50.77 159.62 50.77C157.4 50.77 155.83 51.19 153.95 51.88L152.5 47.44C154.76 46.45 156.98 45.8 160.46 45.8C163.64 45.8 165.93 46.64 167.39 48.09C168.92 49.62 169.61 51.88 169.61 54.64L169.61 66.54L163.98 66.54L163.98 64.32C162.57 65.89 160.61 66.92 157.78 66.92C153.92 66.92 150.74 64.7 150.74 60.65ZM164.1 59.31L164.1 58.27C163.1 57.81 161.8 57.51 160.38 57.51C157.9 57.51 156.37 58.5 156.37 60.34C156.37 61.91 157.67 62.9 159.54 62.9C162.26 62.9 164.1 61.41 164.1 59.31Z" fill="#FFFFFF" fill-opacity="1.000000" fill-rule="nonzero"/>
		</g>
	</g>
	<g mask="url(#mask1_135)">
		<g style="mix-blend-mode:normal">
			<rect id="Rectangle 18" x="172.596222" y="38.605469" width="5.817615" height="27.938614" fill="#FFFFFF" fill-opacity="1.000000"/>
		</g>
	</g>
	<g mask="url(#mask1_135)">
		<g style="mix-blend-mode:normal">
			<path id="Path 109" d="M183.31 60.72L183.31 51L180.86 51L180.86 46.03L183.31 46.03L183.31 40.78L189.12 40.78L189.12 46.03L193.95 46.03L193.95 51L189.12 51L189.12 59.77C189.12 61.1 189.7 61.76 191 61.76C192.07 61.76 193.03 61.49 193.87 61.03L193.87 65.7C192.65 66.42 191.23 66.88 189.28 66.88C185.72 66.88 183.31 65.47 183.31 60.72Z" fill="#FFFFFF" fill-opacity="1.000000" fill-rule="nonzero"/>
		</g>
	</g>
	<g mask="url(#mask1_135)">
		<g style="mix-blend-mode:normal">
			<path id="Path 110" d="M196.7 38.6L202.52 38.6L202.52 48.93C203.86 47.21 205.58 45.64 208.53 45.64C212.93 45.64 215.49 48.55 215.49 53.26L215.49 66.54L209.67 66.54L209.67 55.1C209.67 52.34 208.37 50.92 206.15 50.92C203.93 50.92 202.52 52.34 202.52 55.1L202.52 66.54L196.7 66.54L196.7 38.6Z" fill="#FFFFFF" fill-opacity="1.000000" fill-rule="nonzero"/>
		</g>
	</g>
	<g mask="url(#mask1_135)">
		<g style="mix-blend-mode:normal">
			<path id="Path 111" d="M218.02 56.4C218.02 50.54 222.19 45.64 228.16 45.64C235.01 45.64 238.15 50.96 238.15 56.78C238.15 57.24 238.11 57.77 238.07 58.31L223.8 58.31C224.37 60.95 226.21 62.33 228.81 62.33C230.76 62.33 232.18 61.72 233.79 60.22L237.11 63.17C235.2 65.54 232.45 67 228.73 67C222.57 67 218.02 62.67 218.02 56.4ZM232.48 54.67C232.14 52.07 230.61 50.31 228.16 50.31C225.75 50.31 224.18 52.03 223.72 54.67L232.48 54.67Z" fill="#FFFFFF" fill-opacity="1.000000" fill-rule="nonzero"/>
		</g>
	</g>
	<g mask="url(#mask1_135)">
		<g style="mix-blend-mode:normal">
			<rect id="Rectangle 19" x="240.446594" y="38.605469" width="5.817615" height="27.938614" fill="#FFFFFF" fill-opacity="1.000000"/>
		</g>
	</g>
	<g mask="url(#mask1_135)">
		<g style="mix-blend-mode:normal">
			<path id="Path 112" d="M248.78 38.6L254.91 38.6L254.91 43.77L248.78 43.77L248.78 38.6ZM248.94 46.03L254.75 46.03L254.75 66.54L248.94 66.54L248.94 46.03Z" fill="#FFFFFF" fill-opacity="1.000000" fill-rule="nonzero"/>
		</g>
	</g>
	<g mask="url(#mask1_135)">
		<g style="mix-blend-mode:normal">
			<path id="Path 113" d="M260.42 60.72L260.42 51L257.97 51L257.97 46.03L260.42 46.03L260.42 40.78L266.24 40.78L266.24 46.03L271.06 46.03L271.06 51L266.24 51L266.24 59.77C266.24 61.1 266.81 61.76 268.11 61.76C269.18 61.76 270.14 61.49 270.98 61.03L270.98 65.7C269.76 66.42 268.34 66.88 266.39 66.88C262.83 66.88 260.42 65.47 260.42 60.72Z" fill="#FFFFFF" fill-opacity="1.000000" fill-rule="nonzero"/>
		</g>
	</g>
	<g mask="url(#mask1_135)">
		<g style="mix-blend-mode:normal">
			<path id="Path 114" d="M273.58 56.4C273.58 50.54 277.75 45.64 283.72 45.64C290.57 45.64 293.71 50.96 293.71 56.78C293.71 57.24 293.68 57.77 293.64 58.31L279.36 58.31C279.94 60.95 281.77 62.33 284.38 62.33C286.33 62.33 287.74 61.72 289.35 60.22L292.68 63.17C290.77 65.54 288.01 67 284.3 67C278.14 67 273.58 62.67 273.58 56.4ZM288.05 54.67C287.7 52.07 286.17 50.31 283.72 50.31C281.31 50.31 279.74 52.03 279.29 54.67L288.05 54.67Z" fill="#FFFFFF" fill-opacity="1.000000" fill-rule="nonzero"/>
		</g>
	</g>
	<g mask="url(#mask1_135)">
		<g style="mix-blend-mode:normal">
			<path id="Path 115" d="M305.65 39.56L294.17 66.54L300.17 66.54L302.62 60.53L313.95 60.53L316.4 66.54L322.56 66.54L311.08 39.56L305.65 39.56ZM304.73 55.33L308.29 46.64L311.85 55.33L304.73 55.33Z" fill="#D1AA2A" fill-opacity="1.000000" fill-rule="nonzero"/>
		</g>
	</g>
	<g mask="url(#mask1_135)">
		<g style="mix-blend-mode:normal">
			<path id="Path 116" d="M338.6 48.7C337.22 47.06 335.31 45.64 332.21 45.64C327.34 45.64 322.87 49.39 322.87 56.24C322.87 63.09 327.42 66.92 332.21 66.92C335.23 66.92 337.18 65.51 338.6 63.59L338.6 66.54L344.41 66.54L344.41 38.6L338.6 38.6L338.6 48.7ZM338.67 56.32C338.67 59.73 336.42 61.99 333.7 61.99C330.98 61.99 328.68 59.73 328.68 56.32C328.68 52.88 330.98 50.58 333.7 50.58C336.42 50.58 338.67 52.91 338.67 56.32Z" fill="#D1AA2A" fill-opacity="1.000000" fill-rule="nonzero"/>
		</g>
	</g>
	<g mask="url(#mask1_135)">
		<g style="mix-blend-mode:normal">
			<path id="Path 117" d="M357 59.76L352.41 46.03L346.25 46.03L354.32 66.69L359.61 66.69L367.68 46.03L361.63 46.03L357 59.76Z" fill="#D1AA2A" fill-opacity="1.000000" fill-rule="nonzero"/>
		</g>
	</g>
	<g mask="url(#mask1_135)">
		<g style="mix-blend-mode:normal">
			<rect id="Rectangle 20" x="369.789368" y="46.030518" width="5.817532" height="20.513943" fill="#D1AA2A" fill-opacity="1.000000"/>
		</g>
	</g>
	<g mask="url(#mask1_135)">
		<g style="mix-blend-mode:normal">
			<rect id="Rectangle 21" x="369.635986" y="38.605713" width="6.123713" height="5.166758" fill="#D1AA2A" fill-opacity="1.000000"/>
		</g>
	</g>
	<g mask="url(#mask1_135)">
		<g style="mix-blend-mode:normal">
			<path id="Path 118" d="M387.62 54.14C385.4 53.37 383.45 52.84 383.45 51.69C383.45 50.89 384.17 50.2 385.59 50.2C387.08 50.2 389.11 50.92 391.14 52.11L393.36 48.09C391.14 46.6 388.31 45.72 385.7 45.72C381.57 45.72 378.2 48.05 378.2 52.23C378.2 56.21 381.46 57.62 384.33 58.46C386.59 59.15 388.58 59.57 388.58 60.84C388.58 61.76 387.81 62.44 386.13 62.44C384.21 62.44 381.88 61.6 379.66 59.99L377.17 63.82C379.89 65.97 383.1 66.92 385.97 66.92C390.41 66.92 393.82 64.86 393.82 60.3C393.82 56.55 390.49 55.1 387.62 54.14Z" fill="#D1AA2A" fill-opacity="1.000000" fill-rule="nonzero"/>
		</g>
	</g>
	<g mask="url(#mask1_135)">
		<g style="mix-blend-mode:normal">
			<path id="Path 119" d="M406.6 45.64C400.21 45.64 395.46 50.43 395.46 56.32C395.46 62.21 400.17 67 406.52 67C412.92 67 417.66 62.21 417.66 56.32C417.66 50.43 412.95 45.64 406.6 45.64ZM411.92 56.4C411.92 59.42 409.93 61.99 406.6 61.99C403.39 61.99 401.2 59.34 401.2 56.32C401.2 53.3 403.19 50.66 406.52 50.66C409.74 50.66 411.92 53.37 411.92 56.4Z" fill="#D1AA2A" fill-opacity="1.000000" fill-rule="nonzero"/>
		</g>
	</g>
	<g mask="url(#mask1_135)">
		<g style="mix-blend-mode:normal">
			<path id="Path 120" d="M425.39 50.16L425.39 46.03L419.57 46.03L419.57 66.54L425.39 66.54L425.39 58.96C425.39 54.06 427.76 51.73 431.63 51.73L431.93 51.73L431.93 45.64C428.49 45.49 426.58 47.33 425.39 50.16Z" fill="#D1AA2A" fill-opacity="1.000000" fill-rule="nonzero"/>
		</g>
	</g>
	<g mask="url(#mask1_135)">
		<g style="mix-blend-mode:normal">
			<path id="Path 121" d="M442.88 54.14C440.66 53.37 438.71 52.84 438.71 51.69C438.71 50.89 439.43 50.2 440.85 50.2C442.34 50.2 444.37 50.92 446.4 52.11L448.62 48.09C446.4 46.6 443.57 45.72 440.97 45.72C436.83 45.72 433.46 48.05 433.46 52.23C433.46 56.21 436.72 57.62 439.59 58.46C441.85 59.15 443.84 59.57 443.84 60.84C443.84 61.76 443.07 62.44 441.39 62.44C439.47 62.44 437.14 61.6 434.92 59.99L432.43 63.82C435.15 65.97 438.36 66.92 441.23 66.92C445.67 66.92 449.08 64.86 449.08 60.3C449.08 56.55 445.75 55.1 442.88 54.14Z" fill="#D1AA2A" fill-opacity="1.000000" fill-rule="nonzero"/>
		</g>
	</g>
	<g mask="url(#mask1_135)">
		<g style="mix-blend-mode:normal">
			<path id="Path 122" d="M325.77 79.51C325.77 77.31 327.26 76.05 328.85 76.05C329.94 76.05 330.63 76.6 331.11 77.21L331.11 73.65L332.63 73.65L332.63 82.82L331.11 82.82L331.11 81.71C330.62 82.4 329.93 82.96 328.85 82.96C327.29 82.96 325.77 81.71 325.77 79.51ZM331.13 79.51C331.13 78.23 330.23 77.37 329.21 77.37C328.17 77.37 327.3 78.17 327.3 79.49C327.3 80.77 328.18 81.64 329.21 81.64C330.23 81.64 331.13 80.78 331.13 79.51Z" fill="#888888" fill-opacity="1.000000" fill-rule="nonzero"/>
		</g>
	</g>
	<g mask="url(#mask1_135)">
		<g style="mix-blend-mode:normal">
			<path id="Path 123" d="M334.91 79.54C334.91 77.64 336.42 76.05 338.45 76.05C340.49 76.05 341.98 77.59 341.98 79.49C341.98 81.37 340.48 82.97 338.43 82.97C336.41 82.97 334.91 81.42 334.91 79.54ZM340.46 79.54C340.46 78.37 339.62 77.38 338.43 77.38C337.21 77.38 336.43 78.33 336.43 79.49C336.43 80.64 337.27 81.65 338.45 81.65C339.68 81.65 340.46 80.68 340.46 79.54Z" fill="#888888" fill-opacity="1.000000" fill-rule="nonzero"/>
		</g>
	</g>
	<g mask="url(#mask1_135)">
		<g style="mix-blend-mode:normal">
			<path id="Path 124" d="M349.12 80.98L349.12 77.49L348.27 77.49L348.27 76.18L349.12 76.18L349.12 74.36L350.64 74.36L350.64 76.18L352.42 76.18L352.42 77.49L350.64 77.49L350.64 80.74C350.64 81.33 350.94 81.57 351.45 81.57C351.79 81.57 352.09 81.5 352.39 81.35L352.39 82.59C352.02 82.8 351.59 82.93 351.02 82.93C349.91 82.93 349.12 82.44 349.12 80.98Z" fill="#888888" fill-opacity="1.000000" fill-rule="nonzero"/>
		</g>
	</g>
	<g mask="url(#mask1_135)">
		<g style="mix-blend-mode:normal">
			<path id="Path 125" d="M354.7 73.65L356.22 73.65L356.22 77.21C356.65 76.59 357.27 76.05 358.3 76.05C359.79 76.05 360.66 77.05 360.66 78.6L360.66 82.82L359.14 82.82L359.14 79.05C359.14 78.02 358.62 77.43 357.72 77.43C356.84 77.43 356.22 78.04 356.22 79.07L356.22 82.82L354.7 82.82L354.7 73.65Z" fill="#888888" fill-opacity="1.000000" fill-rule="nonzero"/>
		</g>
	</g>
	<g mask="url(#mask1_135)">
		<g style="mix-blend-mode:normal">
			<path id="Path 126" d="M362.88 79.53C362.88 77.63 364.22 76.05 366.12 76.05C368.23 76.05 369.3 77.7 369.3 79.61C369.3 79.75 369.29 79.89 369.27 80.04L364.4 80.04C364.56 81.12 365.33 81.72 366.31 81.72C367.05 81.72 367.58 81.45 368.11 80.93L369 81.72C368.37 82.48 367.5 82.97 366.28 82.97C364.36 82.97 362.88 81.57 362.88 79.53ZM367.79 79.04C367.69 78.06 367.11 77.29 366.11 77.29C365.18 77.29 364.53 78.01 364.39 79.04L367.79 79.04Z" fill="#888888" fill-opacity="1.000000" fill-rule="nonzero"/>
		</g>
	</g>
	<g mask="url(#mask1_135)">
		<g style="mix-blend-mode:normal">
			<path id="Path 127" d="M376.1 76.18L377.62 76.18L377.62 77.68C378.04 76.69 378.8 76.01 379.97 76.06L379.97 77.67C378.64 77.67 377.62 78.53 377.62 80.29L377.62 82.82L376.1 82.82L376.1 76.18Z" fill="#888888" fill-opacity="1.000000" fill-rule="nonzero"/>
		</g>
	</g>
	<g mask="url(#mask1_135)">
		<g style="mix-blend-mode:normal">
			<path id="Path 128" d="M382.07 73.72L383.7 73.72L383.7 75.17L382.07 75.17L382.07 73.72ZM382.13 76.18L383.65 76.18L383.65 82.82L382.13 82.82L382.13 76.18Z" fill="#888888" fill-opacity="1.000000" fill-rule="nonzero"/>
		</g>
	</g>
	<g mask="url(#mask1_135)">
		<g style="mix-blend-mode:normal">
			<path id="Path 129" d="M386.38 84.06L386.94 82.92C387.65 83.36 388.4 83.62 389.3 83.62C390.66 83.62 391.4 82.92 391.4 81.59L391.4 81.07C390.85 81.79 390.16 82.29 389.06 82.29C387.51 82.29 386.05 81.13 386.05 79.19C386.05 77.23 387.52 76.05 389.06 76.05C390.18 76.05 390.87 76.56 391.39 77.18L391.39 76.18L392.91 76.18L392.91 81.46C392.91 82.58 392.62 83.41 392.07 83.96C391.46 84.56 390.53 84.85 389.34 84.85C388.25 84.85 387.23 84.58 386.38 84.06ZM391.41 79.19C391.41 78.09 390.52 77.33 389.47 77.33C388.41 77.33 387.58 78.06 387.58 79.15C387.58 80.24 388.42 81.01 389.47 81.01C390.52 81.01 391.41 80.25 391.41 79.19Z" fill="#888888" fill-opacity="1.000000" fill-rule="nonzero"/>
		</g>
	</g>
	<g mask="url(#mask1_135)">
		<g style="mix-blend-mode:normal">
			<path id="Path 130" d="M395.56 73.65L397.08 73.65L397.08 77.21C397.5 76.59 398.12 76.05 399.15 76.05C400.64 76.05 401.51 77.05 401.51 78.6L401.51 82.82L399.99 82.82L399.99 79.05C399.99 78.02 399.48 77.43 398.57 77.43C397.69 77.43 397.08 78.04 397.08 79.07L397.08 82.82L395.56 82.82L395.56 73.65Z" fill="#888888" fill-opacity="1.000000" fill-rule="nonzero"/>
		</g>
	</g>
	<g mask="url(#mask1_135)">
		<g style="mix-blend-mode:normal">
			<path id="Path 131" d="M404.41 80.98L404.41 77.49L403.57 77.49L403.57 76.18L404.41 76.18L404.41 74.36L405.93 74.36L405.93 76.18L407.71 76.18L407.71 77.49L405.93 77.49L405.93 80.74C405.93 81.33 406.23 81.57 406.75 81.57C407.09 81.57 407.39 81.5 407.69 81.35L407.69 82.59C407.31 82.8 406.89 82.93 406.32 82.93C405.2 82.93 404.41 82.44 404.41 80.98Z" fill="#888888" fill-opacity="1.000000" fill-rule="nonzero"/>
		</g>
	</g>
	<g mask="url(#mask1_135)">
		<g style="mix-blend-mode:normal">
			<path id="Path 132" d="M414.83 80.98L414.83 77.49L413.99 77.49L413.99 76.18L414.83 76.18L414.83 74.36L416.35 74.36L416.35 76.18L418.14 76.18L418.14 77.49L416.35 77.49L416.35 80.74C416.35 81.33 416.66 81.57 417.17 81.57C417.51 81.57 417.81 81.5 418.11 81.35L418.11 82.59C417.74 82.8 417.31 82.93 416.74 82.93C415.63 82.93 414.83 82.44 414.83 80.98Z" fill="#888888" fill-opacity="1.000000" fill-rule="nonzero"/>
		</g>
	</g>
	<g mask="url(#mask1_135)">
		<g style="mix-blend-mode:normal">
			<path id="Path 133" d="M420.42 73.65L421.94 73.65L421.94 77.21C422.37 76.59 422.99 76.05 424.02 76.05C425.51 76.05 426.38 77.05 426.38 78.6L426.38 82.82L424.86 82.82L424.86 79.05C424.86 78.02 424.34 77.43 423.44 77.43C422.56 77.43 421.94 78.04 421.94 79.07L421.94 82.82L420.42 82.82L420.42 73.65Z" fill="#888888" fill-opacity="1.000000" fill-rule="nonzero"/>
		</g>
	</g>
	<g mask="url(#mask1_135)">
		<g style="mix-blend-mode:normal">
			<path id="Path 134" d="M428.99 73.72L430.62 73.72L430.62 75.17L428.99 75.17L428.99 73.72ZM429.05 76.18L430.57 76.18L430.57 82.82L429.05 82.82L429.05 76.18Z" fill="#888888" fill-opacity="1.000000" fill-rule="nonzero"/>
		</g>
	</g>
	<g mask="url(#mask1_135)">
		<g style="mix-blend-mode:normal">
			<path id="Path 135" d="M433.31 76.18L434.83 76.18L434.83 77.21C435.26 76.59 435.87 76.05 436.9 76.05C438.4 76.05 439.26 77.05 439.26 78.6L439.26 82.82L437.74 82.82L437.74 79.05C437.74 78.02 437.23 77.43 436.32 77.43C435.44 77.43 434.83 78.04 434.83 79.07L434.83 82.82L433.31 82.82L433.31 76.18Z" fill="#888888" fill-opacity="1.000000" fill-rule="nonzero"/>
		</g>
	</g>
	<g mask="url(#mask1_135)">
		<g style="mix-blend-mode:normal">
			<path id="Path 136" d="M441.84 84.06L442.4 82.92C443.1 83.36 443.86 83.62 444.76 83.62C446.12 83.62 446.86 82.92 446.86 81.59L446.86 81.07C446.31 81.79 445.62 82.29 444.52 82.29C442.97 82.29 441.51 81.13 441.51 79.19C441.51 77.23 442.98 76.05 444.52 76.05C445.64 76.05 446.33 76.56 446.85 77.18L446.85 76.18L448.37 76.18L448.37 81.46C448.37 82.58 448.08 83.41 447.53 83.96C446.92 84.56 445.99 84.85 444.8 84.85C443.71 84.85 442.69 84.58 441.84 84.06ZM446.87 79.19C446.87 78.09 445.98 77.33 444.93 77.33C443.87 77.33 443.04 78.06 443.04 79.15C443.04 80.24 443.88 81.01 444.93 81.01C445.98 81.01 446.87 80.25 446.87 79.19Z" fill="#888888" fill-opacity="1.000000" fill-rule="nonzero"/>
		</g>
	</g>
</svg>
