<svg width="74.112305" height="74.045166" viewBox="0 0 74.1123 74.0452" fill="none" xmlns="http://www.w3.org/2000/svg" xmlns:xlink="http://www.w3.org/1999/xlink">
	<desc>
			Created with Pixso.
	</desc>
	<defs/>
	<mask id="mask1_284" mask-type="alpha" maskUnits="userSpaceOnUse" x="0.000000" y="0.000000" width="74.112305" height="74.045166">
		<g style="mix-blend-mode:normal">
			<rect id="Rectangle 28" width="74.111832" height="74.045189" fill="#D2A82B" fill-opacity="1.000000"/>
		</g>
	</mask>
	<g mask="url(#mask1_284)">
		<g style="mix-blend-mode:normal">
			<path id="Path 144" d="M17.27 68.9L17.27 47.46C19.23 47.81 19.16 46.94 20.19 45.84C27.28 38.26 34.89 42.45 43.83 43.03C46.51 43.68 47.57 46.53 47.18 49.07C47.01 50.14 45.51 51.29 44.48 51.46C41.35 51.95 37.66 51.65 34.47 51.94C30.48 52.29 31.22 56.88 34.31 56.88C37.06 56.88 40.79 56.64 43.56 56.4C47.24 56.09 51.31 53.99 51.93 49.97C52.03 49.34 51.81 47.89 52.12 47.54C55.95 45.68 59.59 43.25 63.38 41.37C64.19 40.96 65.1 40.42 66 40.28C72.38 39.28 76.51 46.08 72.56 51.16C65.09 57.49 57.84 64.66 50.19 70.75C47.06 73.24 44.31 74.35 40.19 73.97C32.85 72.58 25.55 70.35 18.23 68.94C17.91 68.88 17.59 68.89 17.27 68.9Z" fill="#D2A82B" fill-opacity="1.000000" fill-rule="nonzero"/>
		</g>
	</g>
	<g mask="url(#mask1_284)">
		<g style="mix-blend-mode:normal">
			<path id="Path 145" d="M46.69 0L48.39 0.06C52.54 2.03 57.93 3.01 61.95 5.02C63.05 5.57 63.44 6.2 63.54 7.43C63.79 10.32 63.71 15 63.54 17.93C62.98 27.66 57.05 33.88 49.24 38.8C48.34 39.36 47.83 39.65 46.68 39.41C45.97 39.26 40.12 34.83 39.24 34.05C34.55 29.91 31.64 24.07 31.3 17.78C31.14 14.99 31 9.96 31.3 7.28C31.43 6.14 32 5.45 33 4.97C37.18 2.99 42.41 1.91 46.69 0ZM53.01 10.94C52.7 11.01 52.36 11.25 52.12 11.44L45.86 17.68C45.53 17.74 43.26 15.07 42.71 14.7C40.56 13.27 37.91 15.44 39.14 17.8C39.37 18.25 43.74 22.64 44.27 23.01C45.59 23.91 46.59 23.57 47.73 22.63C49.62 21.09 53.49 17.2 55.06 15.31C55.31 15 55.74 14.47 55.86 14.11C56.48 12.23 54.91 10.55 53.01 10.94Z" fill="#D2A82B" fill-opacity="1.000000" fill-rule="nonzero"/>
		</g>
	</g>
	<g mask="url(#mask1_284)">
		<g style="mix-blend-mode:normal">
			<path id="Path 146" d="M12.33 73.06L0 73.06L0 40.83L8.09 40.83C9.61 40.83 12.33 43.22 12.33 44.76L12.33 73.06Z" fill="#D2A82B" fill-opacity="1.000000" fill-rule="nonzero"/>
		</g>
	</g>
</svg>
