<svg width="68.251953" height="58.074707" viewBox="0 0 68.252 58.0747" fill="none" xmlns="http://www.w3.org/2000/svg" xmlns:xlink="http://www.w3.org/1999/xlink">
	<desc>
			Created with Pixso.
	</desc>
	<defs/>
	<mask id="mask1_327" mask-type="alpha" maskUnits="userSpaceOnUse" x="0.000000" y="0.000000" width="68.251953" height="58.074707">
		<g style="mix-blend-mode:normal">
			<rect id="Rectangle 31" width="68.251801" height="58.074638" fill="#D2A82B" fill-opacity="1.000000"/>
		</g>
	</mask>
	<g mask="url(#mask1_327)">
		<g style="mix-blend-mode:normal">
			<path id="Path 155" d="M29 17.82L16.36 8.25C14.82 7.15 14.4 5.27 15.54 3.69C16.04 2.99 20.38 0.28 21.21 0.09C21.85 -0.06 22.74 -0.04 23.35 0.21L41.21 10.62L53.32 3.79C57.46 1.96 62.24 2.53 65.99 4.99C68.94 6.93 68.95 8.93 66.29 11.22C50.72 19.67 35.79 29.36 20.27 37.89C17.26 39.55 14.8 40.53 11.57 38.47L0.35 27.7C-0.47 26.45 0.2 25.12 1.69 25C4.51 24.77 8.06 25.68 10.97 25.45C12.84 25.73 14.85 25.79 16.59 24.94L29 17.82Z" fill="#D2A82B" fill-opacity="1.000000" fill-rule="nonzero"/>
		</g>
	</g>
	<g mask="url(#mask1_327)">
		<g style="mix-blend-mode:normal">
			<path id="Path 156" d="M4.88 51.51L63.33 51.48C67.62 52.14 66.97 58.22 62.58 58.07L5.88 58.07C1.65 58.24 0.82 52.47 4.88 51.51Z" fill="#D2A82B" fill-opacity="1.000000" fill-rule="nonzero"/>
		</g>
	</g>
</svg>
