<svg width="78.758301" height="63.490356" viewBox="0 0 78.7583 63.4904" fill="none" xmlns="http://www.w3.org/2000/svg" xmlns:xlink="http://www.w3.org/1999/xlink">
	<desc>
			Created with Pixso.
	</desc>
	<defs/>
	<mask id="mask1_541" mask-type="alpha" maskUnits="userSpaceOnUse" x="0.000000" y="0.000000" width="78.758301" height="63.490356">
		<g style="mix-blend-mode:normal">
			<rect id="Rectangle 3803" width="78.758156" height="63.490387" fill="#C4C4C4" fill-opacity="1.000000"/>
		</g>
	</mask>
	<g mask="url(#mask1_541)">
		<g style="mix-blend-mode:normal">
			<path id="Path 2582" d="M54.93 10.96L75.18 10.96C75.36 10.96 76.03 11.62 76.03 11.8L76.03 55.01C76.84 54.93 78.46 55.02 78.64 56.01C78.8 56.84 78.78 61.58 78.64 62.47C78.54 63.12 78 63.51 77.35 63.48L1.11 63.47C0.58 63.38 0.19 63 0.11 62.47C-0.03 61.58 -0.05 56.84 0.1 56.01C0.29 55.02 1.91 54.93 2.72 55.01L2.72 11.8C2.72 11.62 3.38 10.96 3.57 10.96L23.82 10.96L23.82 0.87C23.82 0.58 24.59 -0.07 24.97 0.02L53.63 0.01C54.05 -0.12 54.93 0.52 54.93 0.87L54.93 10.96ZM52.47 2.64L26.28 2.64L26.28 49.46L28.9 49.46C29.17 45.54 31.94 42.42 35.37 40.76C30.3 36.45 34.17 28.29 40.77 29.66C45.91 30.73 47.41 37.49 43.38 40.76C46.8 42.43 49.59 45.53 49.85 49.46L52.47 49.46L52.47 2.64ZM23.82 13.42L5.34 13.42L5.34 15.89L23.82 15.89L23.82 13.42ZM73.41 13.42L54.93 13.42L54.93 15.89L73.41 15.89L73.41 13.42ZM23.82 18.5L5.34 18.5L5.34 55.01L18.43 55.01L18.43 50.15C18.43 50.11 19.07 49.46 19.12 49.46L23.82 49.46L23.82 18.5ZM73.41 18.5L54.93 18.5L54.93 49.46L59.63 49.46C59.68 49.46 60.32 50.11 60.32 50.15L60.32 55.01L73.41 55.01L73.41 18.5ZM38.88 32.1C34.16 32.73 34.88 39.88 39.6 39.61C44.65 39.32 43.95 31.42 38.88 32.1ZM47.23 49.46C45.86 40.48 32.89 40.48 31.52 49.46L47.23 49.46ZM57.86 51.93L20.89 51.93L20.89 55.01L57.86 55.01L57.86 51.93ZM76.18 57.62L2.56 57.62L2.56 60.86L76.18 60.86L76.18 57.62Z" fill="#D2A82B" fill-opacity="1.000000" fill-rule="nonzero"/>
		</g>
	</g>
	<g mask="url(#mask1_541)">
		<g style="mix-blend-mode:normal">
			<path id="Path 2583" d="M32.4 12.07C33.03 11.96 36.06 11.94 36.61 12.1C37.8 12.46 37.71 14.43 36.36 14.64C35.77 14.74 32.62 14.74 32.13 14.58C31.05 14.25 31 12.32 32.4 12.07Z" fill="#D2A82B" fill-opacity="1.000000" fill-rule="nonzero"/>
		</g>
	</g>
	<g mask="url(#mask1_541)">
		<g style="mix-blend-mode:normal">
			<path id="Path 2584" d="M42.26 12.07C42.86 11.93 46.18 11.97 46.7 12.18C47.78 12.61 47.6 14.45 46.37 14.64C45.77 14.74 42.65 14.74 42.14 14.58C40.99 14.24 41.04 12.34 42.26 12.07Z" fill="#D2A82B" fill-opacity="1.000000" fill-rule="nonzero"/>
		</g>
	</g>
	<g mask="url(#mask1_541)">
		<g style="mix-blend-mode:normal">
			<path id="Path 2585" d="M42.41 18.23C43.11 18.11 45.81 18.1 46.46 18.27C47.79 18.61 47.74 20.59 46.37 20.81C45.77 20.9 42.65 20.9 42.14 20.75C40.91 20.37 41.05 18.48 42.41 18.23Z" fill="#D2A82B" fill-opacity="1.000000" fill-rule="nonzero"/>
		</g>
	</g>
	<g mask="url(#mask1_541)">
		<g style="mix-blend-mode:normal">
			<path id="Path 2586" d="M42.26 5.91C42.78 5.79 46.14 5.8 46.62 5.94C47.82 6.31 47.69 8.26 46.22 8.48C45.55 8.59 42.61 8.57 42.06 8.35C40.98 7.91 41.06 6.17 42.26 5.91Z" fill="#D2A82B" fill-opacity="1.000000" fill-rule="nonzero"/>
		</g>
	</g>
	<g mask="url(#mask1_541)">
		<g style="mix-blend-mode:normal">
			<path id="Path 2587" d="M32.24 5.91C32.78 5.79 35.96 5.79 36.49 5.91C37.78 6.2 37.77 8.2 36.33 8.46C35.62 8.58 32.96 8.59 32.28 8.43C31 8.12 31.01 6.18 32.24 5.91Z" fill="#D2A82B" fill-opacity="1.000000" fill-rule="nonzero"/>
		</g>
	</g>
	<g mask="url(#mask1_541)">
		<g style="mix-blend-mode:normal">
			<path id="Path 2588" d="M32.4 18.23C33.04 18.1 35.84 18.11 36.45 18.27C37.81 18.62 37.75 20.59 36.36 20.81C35.76 20.9 32.64 20.9 32.13 20.75C30.96 20.39 31.06 18.5 32.4 18.23Z" fill="#D2A82B" fill-opacity="1.000000" fill-rule="nonzero"/>
		</g>
	</g>
	<g mask="url(#mask1_541)">
		<g style="mix-blend-mode:normal">
			<path id="Path 2589" d="M42.57 24.39C43.38 24.26 46.08 24.25 46.77 24.59C47.82 25.09 47.59 26.77 46.37 26.97C45.84 27.05 42.52 27.06 42.1 26.94C40.97 26.61 40.95 24.66 42.57 24.39Z" fill="#D2A82B" fill-opacity="1.000000" fill-rule="nonzero"/>
		</g>
	</g>
	<g mask="url(#mask1_541)">
		<g style="mix-blend-mode:normal">
			<path id="Path 2590" d="M32.56 24.39C33.35 24.26 35.67 24.27 36.42 24.46C37.89 24.85 37.73 26.75 36.36 26.97C35.76 27.06 32.64 27.06 32.13 26.91C30.95 26.55 31 24.65 32.56 24.39Z" fill="#D2A82B" fill-opacity="1.000000" fill-rule="nonzero"/>
		</g>
	</g>
	<g mask="url(#mask1_541)">
		<g style="mix-blend-mode:normal">
			<path id="Path 2591" d="M58.12 28.55C58.82 28.43 61.66 28.42 62.26 28.66C63.44 29.12 63.38 30.92 62.08 31.12C61.48 31.22 58.19 31.22 57.69 31.06C56.5 30.69 56.72 28.8 58.12 28.55Z" fill="#D2A82B" fill-opacity="1.000000" fill-rule="nonzero"/>
		</g>
	</g>
	<g mask="url(#mask1_541)">
		<g style="mix-blend-mode:normal">
			<path id="Path 2592" d="M57.81 43.03C58.36 42.9 61.67 42.9 62.21 43.03C63.5 43.31 63.39 45.31 61.9 45.57C61.2 45.7 58.67 45.7 58 45.54C56.64 45.22 56.56 43.3 57.81 43.03Z" fill="#D2A82B" fill-opacity="1.000000" fill-rule="nonzero"/>
		</g>
	</g>
	<g mask="url(#mask1_541)">
		<g style="mix-blend-mode:normal">
			<path id="Path 2593" d="M66.28 35.79C66.89 35.65 70.21 35.68 70.73 35.9C71.59 36.24 71.68 37.66 70.94 38.13C70.43 38.46 66.79 38.49 66.16 38.3C64.96 37.94 65.04 36.06 66.28 35.79Z" fill="#D2A82B" fill-opacity="1.000000" fill-rule="nonzero"/>
		</g>
	</g>
	<g mask="url(#mask1_541)">
		<g style="mix-blend-mode:normal">
			<path id="Path 2594" d="M71.06 28.87C71.73 29.44 71.48 30.89 70.53 31.1C69.99 31.22 66.82 31.22 66.28 31.1C64.92 30.8 64.93 28.86 66.44 28.55C67.2 28.4 70.51 28.41 71.06 28.87Z" fill="#D2A82B" fill-opacity="1.000000" fill-rule="nonzero"/>
		</g>
	</g>
	<g mask="url(#mask1_541)">
		<g style="mix-blend-mode:normal">
			<path id="Path 2595" d="M62.74 36.1C63.44 36.8 63.01 38.13 62.06 38.34C61.53 38.46 58.49 38.46 57.97 38.34C56.66 38.05 56.57 36.04 57.97 35.79C58.74 35.65 60.98 35.66 61.79 35.75C62.04 35.78 62.57 35.93 62.74 36.1Z" fill="#D2A82B" fill-opacity="1.000000" fill-rule="nonzero"/>
		</g>
	</g>
	<g mask="url(#mask1_541)">
		<g style="mix-blend-mode:normal">
			<path id="Path 2596" d="M66.13 43.02C66.53 42.91 70.24 42.93 70.65 43.06C71.62 43.37 71.71 44.85 70.78 45.37C70.12 45.74 67.15 45.71 66.36 45.5C64.94 45.13 65.02 43.35 66.13 43.02Z" fill="#D2A82B" fill-opacity="1.000000" fill-rule="nonzero"/>
		</g>
	</g>
	<g mask="url(#mask1_541)">
		<g style="mix-blend-mode:normal">
			<path id="Path 2597" d="M57.81 21.46C58.36 21.34 61.67 21.34 62.21 21.46C63.42 21.73 63.41 23.68 62.08 23.89C61.43 23.99 58.41 24 57.81 23.86C56.63 23.6 56.63 21.73 57.81 21.46Z" fill="#D2A82B" fill-opacity="1.000000" fill-rule="nonzero"/>
		</g>
	</g>
	<g mask="url(#mask1_541)">
		<g style="mix-blend-mode:normal">
			<path id="Path 2598" d="M66.13 21.46C66.59 21.36 70.29 21.35 70.68 21.46C71.72 21.76 71.68 23.68 70.56 23.89C70.06 23.99 66.42 23.96 66.01 23.83C65.01 23.5 65.07 21.7 66.13 21.46Z" fill="#D2A82B" fill-opacity="1.000000" fill-rule="nonzero"/>
		</g>
	</g>
	<g mask="url(#mask1_541)">
		<g style="mix-blend-mode:normal">
			<path id="Path 2599" d="M16.85 28.55C17.54 28.43 20.39 28.42 20.98 28.66C22.17 29.12 22.1 30.92 20.81 31.12C20.2 31.22 16.92 31.22 16.42 31.06C15.22 30.69 15.44 28.8 16.85 28.55Z" fill="#D2A82B" fill-opacity="1.000000" fill-rule="nonzero"/>
		</g>
	</g>
	<g mask="url(#mask1_541)">
		<g style="mix-blend-mode:normal">
			<path id="Path 2600" d="M16.54 43.03C17.08 42.9 20.39 42.9 20.94 43.03C22.22 43.31 22.11 45.31 20.62 45.57C19.93 45.7 17.39 45.7 16.72 45.54C15.36 45.22 15.29 43.3 16.54 43.03Z" fill="#D2A82B" fill-opacity="1.000000" fill-rule="nonzero"/>
		</g>
	</g>
	<g mask="url(#mask1_541)">
		<g style="mix-blend-mode:normal">
			<path id="Path 2601" d="M8.38 35.79C9.03 35.67 11.85 35.65 12.47 35.79C13.77 36.08 13.76 38.05 12.47 38.34C11.87 38.47 8.86 38.45 8.25 38.31C6.95 38 6.97 36.04 8.38 35.79Z" fill="#D2A82B" fill-opacity="1.000000" fill-rule="nonzero"/>
		</g>
	</g>
	<g mask="url(#mask1_541)">
		<g style="mix-blend-mode:normal">
			<path id="Path 2602" d="M8.53 28.55C9.23 28.43 11.63 28.41 12.31 28.55C13.83 28.86 13.77 30.81 12.47 31.1C11.95 31.22 8.57 31.21 8.1 31.06C6.99 30.72 6.94 28.82 8.53 28.55Z" fill="#D2A82B" fill-opacity="1.000000" fill-rule="nonzero"/>
		</g>
	</g>
	<g mask="url(#mask1_541)">
		<g style="mix-blend-mode:normal">
			<path id="Path 2603" d="M21.46 36.1C22.16 36.8 21.73 38.13 20.78 38.34C20.26 38.46 17.22 38.46 16.69 38.34C15.38 38.05 15.29 36.04 16.69 35.79C17.46 35.65 19.71 35.66 20.51 35.75C20.77 35.78 21.29 35.93 21.46 36.1Z" fill="#D2A82B" fill-opacity="1.000000" fill-rule="nonzero"/>
		</g>
	</g>
	<g mask="url(#mask1_541)">
		<g style="mix-blend-mode:normal">
			<path id="Path 2604" d="M8.22 43.03C8.67 42.92 12.23 42.91 12.62 43.02C13.47 43.27 13.76 44.59 13.03 45.22C12.43 45.74 9.21 45.74 8.41 45.54C6.98 45.2 6.99 43.3 8.22 43.03Z" fill="#D2A82B" fill-opacity="1.000000" fill-rule="nonzero"/>
		</g>
	</g>
	<g mask="url(#mask1_541)">
		<g style="mix-blend-mode:normal">
			<path id="Path 2605" d="M8.06 21.46C8.46 21.35 12.15 21.36 12.62 21.46C13.73 21.71 13.73 23.61 12.62 23.86C12.16 23.96 8.46 23.98 8.06 23.86C7.07 23.57 7.07 21.75 8.06 21.46Z" fill="#D2A82B" fill-opacity="1.000000" fill-rule="nonzero"/>
		</g>
	</g>
	<g mask="url(#mask1_541)">
		<g style="mix-blend-mode:normal">
			<path id="Path 2606" d="M16.54 21.46C17.08 21.34 20.39 21.34 20.94 21.46C22.15 21.73 22.14 23.68 20.81 23.89C20.15 23.99 17.14 24 16.54 23.86C15.36 23.6 15.35 21.73 16.54 21.46Z" fill="#D2A82B" fill-opacity="1.000000" fill-rule="nonzero"/>
		</g>
	</g>
</svg>
