<svg width="58.200699" height="58.239746" viewBox="0 0 58.2007 58.2397" fill="none" xmlns="http://www.w3.org/2000/svg" xmlns:xlink="http://www.w3.org/1999/xlink">
	<desc>
			Created with Pixso.
	</desc>
	<defs/>
	<mask id="mask1_122" mask-type="alpha" maskUnits="userSpaceOnUse" x="0.000000" y="0.000000" width="58.200699" height="58.239746">
		<g style="mix-blend-mode:normal">
			<rect id="Rectangle 9" width="58.200695" height="58.239784" fill="#C4C4C4" fill-opacity="1.000000"/>
		</g>
	</mask>
	<g mask="url(#mask1_122)">
		<g style="mix-blend-mode:normal">
			<path id="Path 46" d="M0.03 29.97C0.21 28.3 2.07 24.23 4.27 25.79C4.73 26.13 4.95 26.75 4.91 27.31C4.85 28.12 4.32 28.35 3.95 28.96C2.48 31.44 4.33 34.15 7.06 34.17C7.68 24.83 16.05 17.72 25.15 17.16C28.63 16.95 33.47 16.96 36.95 17.15C38.17 17.22 39.38 17.51 40.57 17.73C40.87 17.69 41.62 16.74 41.94 16.48C43.36 15.31 45.19 14.42 46.98 14.04C48.66 13.68 51.13 13.18 51.18 15.62L49.87 23.46C51.3 25.1 52.45 26.94 53.28 28.96C53.42 29.3 53.8 30.73 53.93 30.86C54.01 30.94 54.96 31.19 55.23 31.32C56.8 32.07 57.97 33.84 58.1 35.59C58.42 39.55 58.16 43.55 53.5 44.37C53.21 44.42 52.76 44.3 52.54 44.43C52.43 44.5 51.44 46.29 51.21 46.62C50.26 47.96 49.09 49.21 47.84 50.28C47.55 52.27 48.02 54.62 47.78 56.57C47.68 57.38 47.05 58.01 46.25 58.11C44.84 58.28 40.51 58.28 39.1 58.11C38.82 58.07 38.28 57.83 38.08 57.65C37.99 57.57 37.57 56.85 37.57 56.8L37.57 54.47L27.36 54.59L27.36 56.8C27.36 56.85 26.94 57.57 26.86 57.65C26.66 57.83 26.11 58.07 25.84 58.11C24.42 58.28 20.1 58.28 18.68 58.11C16.24 57.81 17.49 54.17 17.1 52.54C11.47 49.63 7.63 43.91 7.06 37.57C4.49 37.62 1.94 36.12 0.76 33.84C0.52 33.36 0.09 32.19 0.03 31.68C-0.02 31.27 -0.01 30.39 0.03 29.97ZM25.29 23.99C23.48 24.57 23.53 26.9 25.39 27.36L36.15 27.36C38.04 26.91 38.05 24.43 36.15 23.97L25.29 23.99ZM45.71 30.79C43.58 31.23 44.2 34.61 46.45 34.15C48.58 33.71 47.96 30.33 45.71 30.79Z" fill="#D1AA2A" fill-opacity="1.000000" fill-rule="nonzero"/>
		</g>
	</g>
	<g mask="url(#mask1_122)">
		<g style="mix-blend-mode:normal">
			<path id="Path 47" d="M31.67 0.03C40.02 1.03 39.17 14.15 30.36 13.65C22.09 13.18 21.96 0.98 29.86 0.03C30.28 -0.02 31.25 -0.02 31.67 0.03Z" fill="#D1AA2A" fill-opacity="1.000000" fill-rule="nonzero"/>
		</g>
	</g>
</svg>
