<svg width="49.481445" height="78.256592" viewBox="0 0 49.4814 78.2566" fill="none" xmlns="http://www.w3.org/2000/svg" xmlns:xlink="http://www.w3.org/1999/xlink">
	<desc>
			Created with Pixso.
	</desc>
	<defs/>
	<mask id="mask1_297" mask-type="alpha" maskUnits="userSpaceOnUse" x="0.000000" y="0.000000" width="49.481445" height="78.256592">
		<g style="mix-blend-mode:normal">
			<rect id="Rectangle 29" width="49.480961" height="78.256607" fill="#D2A82B" fill-opacity="1.000000"/>
		</g>
	</mask>
	<g mask="url(#mask1_297)">
		<g style="mix-blend-mode:normal">
			<path id="Path 147" d="M26.56 0.07C27.83 0.2 29.34 0.86 30.53 1.29L30.38 1.51L11.98 9.69C11.55 9.69 13.03 6.81 13.16 6.59C15 3.44 19.09 0.51 22.75 0.07C23.61 -0.03 25.69 -0.02 26.56 0.07Z" fill="#D2A82B" fill-opacity="1.000000" fill-rule="nonzero"/>
		</g>
	</g>
	<g mask="url(#mask1_297)">
		<g style="mix-blend-mode:normal">
			<path id="Path 148" d="M49.47 78.25L5.19 78.25L5.19 72.45L36.41 72.45C37.16 72.45 39.16 71.58 39.84 71.14C46.51 66.78 43.72 56.54 35.66 55.95C31.64 55.66 27.27 56.2 23.22 55.94L18.62 38.25C23.66 39.97 28.59 39.5 33.29 37.1C33.68 36.9 34.93 35.98 35.18 35.97C35.66 35.95 37.02 36.34 37.56 36.49C44.46 38.44 49.18 44.76 49.48 51.9L49.47 78.25Z" fill="#D2A82B" fill-opacity="1.000000" fill-rule="nonzero"/>
		</g>
	</g>
	<g mask="url(#mask1_297)">
		<g style="mix-blend-mode:normal">
			<path id="Path 149" d="M21.83 68.02L0 68.02L0 51.76C0.47 44.02 5.62 37.8 13.21 36.14L21.83 68.02Z" fill="#D2A82B" fill-opacity="1.000000" fill-rule="nonzero"/>
		</g>
	</g>
	<g mask="url(#mask1_297)">
		<g style="mix-blend-mode:normal">
			<path id="Path 150" d="M38.17 15.64L38.17 23.05C38.17 24.31 37.02 26.99 36.36 28.12C31.62 36.29 20.16 37.09 14.2 29.77C13.06 28.37 11.29 24.83 11.29 23.05L11.29 15.64L38.17 15.64Z" fill="#D2A82B" fill-opacity="1.000000" fill-rule="nonzero"/>
		</g>
	</g>
	<g mask="url(#mask1_297)">
		<g style="mix-blend-mode:normal">
			<path id="Path 151" d="M35.5 60.39C40.27 60.91 40.24 67.56 35.65 68.02C32.76 68.31 29.44 67.8 26.5 68.03L24.48 60.7C24.39 60.59 24.62 60.39 24.66 60.39L35.5 60.39Z" fill="#D2A82B" fill-opacity="1.000000" fill-rule="nonzero"/>
		</g>
	</g>
	<g mask="url(#mask1_297)">
		<g style="mix-blend-mode:normal">
			<path id="Path 152" d="M38.02 11.22L19.85 11.22L34.61 4.52C35 4.48 36.19 6.38 36.42 6.79C37.2 8.16 37.73 9.66 38.02 11.22Z" fill="#D2A82B" fill-opacity="1.000000" fill-rule="nonzero"/>
		</g>
	</g>
</svg>
