<svg width="65.459473" height="71.096436" viewBox="0 0 65.4595 71.0964" fill="none" xmlns="http://www.w3.org/2000/svg" xmlns:xlink="http://www.w3.org/1999/xlink">
	<desc>
			Created with Pixso.
	</desc>
	<defs/>
	<mask id="mask1_315" mask-type="alpha" maskUnits="userSpaceOnUse" x="0.000000" y="0.000000" width="65.459473" height="71.096191">
		<g style="mix-blend-mode:normal">
			<rect id="Rectangle 30" width="65.459389" height="71.096306" fill="#D2A82B" fill-opacity="1.000000"/>
		</g>
	</mask>
	<g mask="url(#mask1_315)">
		<g style="mix-blend-mode:normal">
			<path id="Path 153" d="M22.3 0.04C24.07 0.25 26.13 1.61 27.14 3.04C29.59 6.5 28.44 11.28 24.79 13.31L26.25 22.67C26.35 22.81 26.52 22.79 26.67 22.81C30.32 23.26 34.9 22.46 38.65 22.8C41.62 23.06 42.2 27.06 39.6 28.2C39.47 28.26 38.84 28.49 38.78 28.49L27.17 28.49L28 34.18L48.66 34.18C49.77 34.25 50.72 35.01 51.09 36.05L57.28 55.84C57.44 56.07 57.44 55.91 57.58 55.86C58.89 55.44 61.5 54 62.7 54.02C65.51 54.09 66.49 57.92 64.12 59.34C62.9 60.07 57.93 62.01 56.49 62.4C54.79 62.87 53.34 62.16 52.75 60.49L46.35 39.89L25.7 39.88C24.09 39.74 23.02 38.88 22.76 37.27L19.18 14.04C19.14 13.92 19.11 13.84 19 13.77C18.6 13.51 17.89 13.34 17.33 12.98C11.99 9.48 14.05 0.79 20.35 0.04C20.81 -0.02 21.84 -0.02 22.3 0.04Z" fill="#D2A82B" fill-opacity="1.000000" fill-rule="nonzero"/>
		</g>
	</g>
	<g mask="url(#mask1_315)">
		<g style="mix-blend-mode:normal">
			<path id="Path 154" d="M13.23 25.61C16.06 25.3 17.6 28.82 15.19 30.77C13.06 32.5 11.49 33.16 9.65 35.51C-2.28 50.68 14.26 71.73 31.94 63.73C37.02 61.44 38.51 58.68 41.19 54.22C42.07 52.75 43.63 52.11 45.21 53.03C47.93 54.63 45.93 57.79 44.75 59.72C38.03 70.59 23.71 74.3 12.47 68.08C-1.06 60.6 -4.2 42.47 6.09 30.85C7.31 29.47 11.48 25.8 13.23 25.61Z" fill="#D2A82B" fill-opacity="1.000000" fill-rule="nonzero"/>
		</g>
	</g>
</svg>
