<svg width="20.919922" height="15.148804" viewBox="0 0 20.9199 15.1488" fill="none" xmlns="http://www.w3.org/2000/svg" xmlns:xlink="http://www.w3.org/1999/xlink">
	<desc>
			Created with Pixso.
	</desc>
	<defs/>
	<g style="mix-blend-mode:normal">
		<path id="Path 142" d="M18.16 0L2.75 0C1.23 0 0 1.23 0 2.75L0 12.39C0 13.91 1.23 15.14 2.75 15.14L18.16 15.14C19.68 15.14 20.91 13.91 20.91 12.39L20.91 2.75C20.91 1.23 19.68 0 18.16 0ZM12.93 8.23L8.65 10.38C8.15 10.62 7.57 10.26 7.57 9.71L7.57 5.43C7.57 4.88 8.15 4.52 8.65 4.76L12.93 6.91C13.48 7.18 13.48 7.96 12.93 8.23Z" fill="#FFFFFF" fill-opacity="1.000000" fill-rule="nonzero"/>
	</g>
</svg>
