<svg width="49.139679" height="58.340576" viewBox="0 0 49.1397 58.3406" fill="none" xmlns="http://www.w3.org/2000/svg" xmlns:xlink="http://www.w3.org/1999/xlink">
	<desc>
			Created with Pixso.
	</desc>
	<defs/>
	<mask id="mask1_128" mask-type="alpha" maskUnits="userSpaceOnUse" x="0.000000" y="0.000000" width="49.139679" height="58.340576">
		<g style="mix-blend-mode:normal">
			<rect id="Rectangle 10" width="49.139671" height="58.340576" fill="#C4C4C4" fill-opacity="1.000000"/>
		</g>
	</mask>
	<g mask="url(#mask1_128)">
		<g style="mix-blend-mode:normal">
			<path id="Path 48" d="M25.02 0C26.23 0.51 27.05 1.58 28.05 2.39C32.37 5.87 37.69 7.84 43.22 8.32C44.47 8.43 45.92 8.31 47.09 8.45C49.52 8.75 48.91 11.09 48.98 12.84C49.55 28.18 49.25 43.57 35.49 53.19C32.84 55.04 28.55 57.35 25.46 58.22C24.08 58.6 22.97 57.98 21.68 57.47C15.67 55.11 10.09 51.32 6.33 46.01C-0.42 36.46 -0.24 24.18 0.16 12.95C0.22 11.18 -0.41 8.75 2.05 8.45C3.22 8.31 4.67 8.43 5.91 8.32C11.47 7.84 16.73 5.87 21.08 2.39C22.09 1.58 22.91 0.52 24.11 0L25.02 0ZM32.86 20.2L21.75 30.79L21.36 30.64L16.52 25.21L13.39 28.01L20.18 35.48C21.16 36.19 22.05 35.99 22.97 35.31L35.7 23.27C35.77 23.18 35.74 23.13 35.7 23.04C35.65 22.95 34.51 21.75 34.32 21.56C34.13 21.36 33.01 20.17 32.86 20.2Z" fill="#D1AA2A" fill-opacity="1.000000" fill-rule="nonzero"/>
		</g>
	</g>
</svg>
