<svg width="68.215820" height="57.008179" viewBox="0 0 68.2158 57.0082" fill="none" xmlns="http://www.w3.org/2000/svg" xmlns:xlink="http://www.w3.org/1999/xlink">
	<desc>
			Created with Pixso.
	</desc>
	<defs/>
	<mask id="mask1_291" mask-type="alpha" maskUnits="userSpaceOnUse" x="0.000000" y="0.000000" width="68.215820" height="57.008179">
		<g style="mix-blend-mode:normal">
			<rect id="Rectangle 32" width="68.216034" height="57.008209" fill="#D2A82B" fill-opacity="1.000000"/>
		</g>
	</mask>
	<g mask="url(#mask1_291)">
		<g style="mix-blend-mode:normal">
			<path id="Path 157" d="M68.21 52.35C67.49 54.95 65.58 56.75 62.83 57L5.8 57C2.98 56.9 0.66 54.91 0.18 52.13L0.16 31.14C1.01 28.8 2.22 30.26 3.53 30.84C3.8 30.96 4.92 31.35 5.15 31.35L28.6 31.35L28.6 36.06C28.6 36.74 29.87 37.03 30.39 37.07C32.43 37.21 36.24 37.26 38.24 37.06C38.71 37.01 39.77 36.61 39.77 36.06L39.77 31.35L63.23 31.35C63.45 31.35 64.57 30.96 64.85 30.84C66.15 30.26 66.93 28.97 68.21 30.81L68.21 52.35Z" fill="#D2A82B" fill-opacity="1.000000" fill-rule="nonzero"/>
		</g>
	</g>
	<g mask="url(#mask1_291)">
		<g style="mix-blend-mode:normal">
			<path id="Path 158" d="M68.21 24.04C67.74 25.57 66.92 26.95 65.51 27.78C65.19 27.97 63.92 28.56 63.63 28.56L39.77 28.56L39.77 26.63C39.77 26.4 38.86 25.67 38.51 25.76C35.78 25.96 32.68 25.5 29.99 25.76C29.58 25.8 28.6 26.2 28.6 26.63L28.6 28.56L4.75 28.56C2.64 28.56 0.33 25.58 0.16 23.58C-0.06 21.06 -0.06 16.25 0.16 13.73C0.36 11.37 2.83 8.62 5.28 8.62L19.97 8.62L19.97 5.1C19.97 2.66 23.19 -0.01 25.61 0.11C31.18 0.39 37.1 -0.25 42.63 0.11C45.17 0.27 48.41 2.29 48.41 5.1L48.41 8.62L63.09 8.62C63.31 8.62 64.48 8.98 64.75 9.09C66.51 9.77 67.72 11.51 68.21 13.27L68.21 24.04ZM42.69 5.96L25.68 5.96L25.68 8.62L42.69 8.62L42.69 5.96Z" fill="#D2A82B" fill-opacity="1.000000" fill-rule="nonzero"/>
		</g>
	</g>
</svg>
