<svg width="18.753418" height="18.753296" viewBox="0 0 18.7534 18.7533" fill="none" xmlns="http://www.w3.org/2000/svg" xmlns:xlink="http://www.w3.org/1999/xlink">
	<desc>
			Created with Pixso.
	</desc>
	<defs/>
	<g style="mix-blend-mode:normal">
		<path id="Vector 1" d="M4.52 0L14.22 0C16.72 0 18.75 2.02 18.75 4.52L18.75 14.22C18.75 16.72 16.72 18.75 14.22 18.75L4.52 18.75C2.02 18.75 0 16.72 0 14.22L0 4.52C0 2.02 2.02 0 4.52 0ZM13.9 17.13C15.68 17.13 17.13 15.68 17.13 13.9L17.13 4.84C17.13 3.06 15.68 1.61 13.9 1.61L4.85 1.61C3.06 1.61 1.61 3.06 1.61 4.84L1.61 13.9C1.61 15.68 3.06 17.13 4.85 17.13L13.9 17.13ZM4.53 9.37C4.53 6.69 6.7 4.52 9.38 4.52C12.06 4.52 14.23 6.69 14.23 9.37C14.23 12.05 12.06 14.22 9.38 14.22C6.7 14.22 4.53 12.05 4.53 9.37ZM6.15 9.37C6.15 11.15 7.6 12.61 9.38 12.61C11.16 12.61 12.61 11.15 12.61 9.37C12.61 7.59 11.16 6.14 9.38 6.14C7.6 6.14 6.15 7.59 6.15 9.37Z" fill="#FFFFFF" fill-opacity="1.000000" fill-rule="evenodd"/>
	</g>
</svg>
