<svg width="71.595596" height="83.730957" viewBox="0 0 71.5956 83.731" fill="none" xmlns="http://www.w3.org/2000/svg" xmlns:xlink="http://www.w3.org/1999/xlink">
	<desc>
			Created with Pixso.
	</desc>
	<defs/>
	<mask id="mask1_117" mask-type="alpha" maskUnits="userSpaceOnUse" x="0.000000" y="0.000000" width="71.595596" height="83.730957">
		<g style="mix-blend-mode:normal">
			<rect id="Rectangle 8" width="71.595596" height="83.731049" fill="#C4C4C4" fill-opacity="1.000000"/>
		</g>
	</mask>
	<g mask="url(#mask1_117)">
		<g style="mix-blend-mode:normal">
			<path id="Path 45" d="M35.3 83.73C35.07 83.47 34.75 83.39 34.48 83.16C33.43 82.29 31.69 79.95 30.71 79.41C30.07 79.04 28.36 78.82 27.49 78.54C19.44 75.87 13.09 70.49 8.1 63.76C7.8 63.36 6.29 60.88 6.12 60.84C5.47 60.68 3.48 65.14 1.71 65.1C0.22 65.06 -0.08 63.81 0.01 62.57C0.32 58.24 2.15 53.24 2.61 48.83C2.91 47.44 4.22 46.95 5.44 47.62L18.14 55.4C19.08 57.2 18.01 58.47 16.09 58.39C15.52 58.37 12.08 57.92 11.92 58.06C12.06 58.49 12.52 59.02 12.82 59.37C17.39 64.62 24.44 66.86 31.22 67.38L31.22 26.99L27.21 26.99C27.06 26.99 25.77 27.82 24.92 27.81C19.78 27.78 19.98 19.57 25.41 20.13C26 20.19 26.96 20.78 27.05 20.78L31.22 20.78L31.22 15.22C31.22 15.2 30.95 15.2 30.81 15.06C20.74 5.16 35.76 -5.67 42.47 3.4C45.62 7.65 44.18 11.72 40.78 15.06C40.64 15.2 40.37 15.2 40.37 15.22L40.37 20.78L44.54 20.78C44.63 20.78 45.59 20.19 46.17 20.13C51.61 19.57 51.8 27.78 46.67 27.81C45.81 27.82 44.52 26.99 44.38 26.99L40.37 26.99L40.37 67.38C47.15 66.86 54.2 64.62 58.77 59.37C58.89 59.22 59.78 58.16 59.66 58.06C57.31 58 51.83 59.74 53.45 55.4L66.15 47.62C67.33 46.94 68.67 47.49 68.97 48.83C69.43 53.24 71.26 58.24 71.58 62.57C71.67 63.81 71.37 65.06 69.87 65.1C68.11 65.14 66.11 60.68 65.47 60.84C65.3 60.88 63.79 63.36 63.49 63.76C58.5 70.49 52.15 75.87 44.09 78.54C43.23 78.82 41.52 79.04 40.87 79.41C39.92 79.94 38.13 82.29 37.11 83.16C36.83 83.39 36.52 83.47 36.28 83.73L35.3 83.73ZM37.37 9.93C39.58 7.72 35.67 4.42 33.92 7.22C32.53 9.45 35.62 11.69 37.37 9.93Z" fill="#D1AA2A" fill-opacity="1.000000" fill-rule="nonzero"/>
		</g>
	</g>
</svg>
