<svg width="12.416016" height="23.518188" viewBox="0 0 12.416 23.5182" fill="none" xmlns="http://www.w3.org/2000/svg" xmlns:xlink="http://www.w3.org/1999/xlink">
	<desc>
			Created with Pixso.
	</desc>
	<defs/>
	<g style="mix-blend-mode:normal">
		<path id="Path 138" d="M12.4 10.37L12.11 12.76C12.06 13.16 11.72 13.46 11.32 13.46L7.44 13.46L7.44 23.46C7.04 23.49 6.62 23.51 6.2 23.51C5.27 23.51 4.35 23.42 3.47 23.24L3.47 13.46L0.49 13.46C0.22 13.46 0 13.23 0 12.96L0 9.97C0 9.69 0.22 9.47 0.49 9.47L3.47 9.47L3.47 4.98C3.47 2.23 5.69 0 8.44 0L11.91 0C12.19 0 12.41 0.22 12.41 0.49L12.41 3.49C12.41 3.76 12.19 3.98 11.91 3.98L9.43 3.98C8.33 3.98 7.44 4.88 7.44 5.98L7.44 9.47L11.62 9.47C12.09 9.47 12.46 9.89 12.4 10.37Z" fill="#FFFFFF" fill-opacity="1.000000" fill-rule="nonzero"/>
	</g>
</svg>
