<svg width="82.862305" height="59.794678" viewBox="0 0 82.8623 59.7947" fill="none" xmlns="http://www.w3.org/2000/svg" xmlns:xlink="http://www.w3.org/1999/xlink">
	<desc>
			Created with Pixso.
	</desc>
	<defs/>
	<mask id="mask1_307" mask-type="alpha" maskUnits="userSpaceOnUse" x="0.000000" y="0.000000" width="82.862305" height="59.794678">
		<g style="mix-blend-mode:normal">
			<rect id="Rectangle 34" width="82.862648" height="59.794628" fill="#D2A82B" fill-opacity="1.000000"/>
		</g>
	</mask>
	<g mask="url(#mask1_307)">
		<g style="mix-blend-mode:normal">
			<path id="Path 159" d="M0 28.5L37.24 0L52.19 11.4C52.18 11.81 47.88 13.37 47.17 13.43L47.17 19.75L37.36 12.32L5.75 36.6L0 29.15L0 28.5Z" fill="#D2A82B" fill-opacity="1.000000" fill-rule="nonzero"/>
		</g>
	</g>
	<g mask="url(#mask1_307)">
		<g style="mix-blend-mode:normal">
			<path id="Path 160" d="M60.79 47.15L60.79 54.76L65.49 54.76L65.49 59.79L45.22 59.79L45.22 36.93L29.5 36.93L29.5 59.79L9.24 59.79L9.24 54.76L13.77 54.76L13.77 36.53L37.36 18.33L47.33 25.99C47.8 26.91 47.79 28.01 48.06 28.99C50.07 36.33 54.32 43.01 60.79 47.15Z" fill="#D2A82B" fill-opacity="1.000000" fill-rule="nonzero"/>
		</g>
	</g>
	<g mask="url(#mask1_307)">
		<g style="mix-blend-mode:normal">
			<path id="Path 161" d="M82.81 16.86C82.87 20.28 83 23.55 82.3 26.91C80.83 33.88 76.3 40.32 70.24 44.03C69.76 44.33 67.88 45.44 67.47 45.5C67.06 45.56 65.27 44.49 64.79 44.2C58.57 40.49 53.92 33.98 52.44 26.88C51.74 23.54 51.82 20.26 51.89 16.85C55.03 15.86 57.28 13.57 58.87 10.78C59.08 10.41 59.11 9.71 59.6 9.57L74.98 9.53C75.64 9.56 75.81 10.68 76.16 11.27C77.68 13.85 79.95 15.86 82.81 16.86ZM73.84 18.78L66.36 25.89C65.8 25.99 63.09 22.68 62.3 22.36C61.09 23.29 60.19 24.65 59.01 25.67L66.36 32.54L76.99 22.24C77.06 21.8 74.27 19.28 73.84 18.78Z" fill="#D2A82B" fill-opacity="1.000000" fill-rule="nonzero"/>
		</g>
	</g>
	<g mask="url(#mask1_307)">
		<g style="mix-blend-mode:normal">
			<rect id="Rectangle 33" x="34.205078" y="41.638672" width="6.322225" height="18.156134" fill="#D2A82B" fill-opacity="1.000000"/>
		</g>
	</g>
</svg>
