<svg width="475.821808" height="92.255798" viewBox="0 0 475.822 92.2558" fill="none" xmlns="http://www.w3.org/2000/svg" xmlns:xlink="http://www.w3.org/1999/xlink">
	<desc>
			Created with Pixso.
	</desc>
	<defs/>
	<mask id="mask1_41" mask-type="alpha" maskUnits="userSpaceOnUse" x="0.000000" y="0.000000" width="475.821808" height="92.255798">
		<g style="mix-blend-mode:normal">
			<rect id="Rectangle 5" width="475.821838" height="92.255791" fill="#C4C4C4" fill-opacity="1.000000"/>
		</g>
	</mask>
	<g mask="url(#mask1_41)">
		<g style="mix-blend-mode:normal">
			<path id="Path 1" d="M87.66 27.97L67.23 15.36L70.61 40.6L75.7 32.71C76.93 38.46 76.91 44.56 75.39 50.65C70.05 71.96 48.43 84.92 27.12 79.58C15.97 76.79 7.11 69.54 1.96 60.21C5.63 74.85 17.04 87.05 32.7 90.97C55.34 96.65 78.3 82.89 83.97 60.25C86.63 49.61 85 38.9 80.18 29.95L87.66 27.97Z" fill="#D1AA2A" fill-opacity="1.000000" fill-rule="evenodd"/>
		</g>
	</g>
	<g mask="url(#mask1_41)">
		<g style="mix-blend-mode:normal">
			<path id="Path 2" d="M56.98 63.81C57.12 63.44 57.28 63.07 57.49 62.73C54.48 64.83 51.06 66.46 47.29 67.41C30.64 71.58 13.75 61.46 9.58 44.81C8.39 40.06 8.38 35.29 9.34 30.8L13.31 36.96L15.95 17.24L-1.53e-5 27.1L5.85 28.65C2.08 35.64 0.8 44 2.88 52.31C7.31 69.99 25.24 80.74 42.93 76.31C47.08 75.27 50.83 73.46 54.11 71.09C53.22 68.4 54.18 65.02 56.98 63.81Z" fill="#FFDE00" fill-opacity="1.000000" fill-rule="evenodd"/>
		</g>
	</g>
	<g mask="url(#mask1_41)">
		<g style="mix-blend-mode:normal">
			<path id="Path 3" d="M22.73 24.2C22.57 24.2 22.41 24.14 22.28 24.02C22.01 23.76 22 23.35 22.25 23.08L38.4 6.76C38.55 6.6 38.77 6.53 38.99 6.56C39.2 6.6 39.39 6.74 39.48 6.94L46.74 17.55L63.19 2.7C63.43 2.43 63.85 2.4 64.12 2.64C64.4 2.88 64.43 3.3 64.18 3.58L47.07 19.19C46.92 19.35 46.7 19.44 46.48 19.41C46.26 19.37 46.07 19.23 45.97 19.03L38.7 8.38L23.22 23.99C23.09 24.13 22.91 24.2 22.73 24.2Z" fill="#FFDE00" fill-opacity="1.000000" fill-rule="nonzero"/>
		</g>
	</g>
	<g mask="url(#mask1_41)">
		<g style="mix-blend-mode:normal">
			<path id="Path 4" d="M24.89 23.82C24.89 25.2 23.78 26.3 22.4 26.3C21.03 26.3 19.92 25.18 19.93 23.81C19.93 22.44 21.05 21.33 22.42 21.33C23.79 21.34 24.9 22.45 24.89 23.82Z" fill="#FFDE00" fill-opacity="1.000000" fill-rule="nonzero"/>
		</g>
	</g>
	<g mask="url(#mask1_41)">
		<g style="mix-blend-mode:normal">
			<path id="Path 5" d="M40.86 8.01C40.86 9.38 39.74 10.49 38.37 10.49C37 10.48 35.89 9.37 35.89 8C35.9 6.63 37.01 5.52 38.38 5.52C39.75 5.52 40.86 6.64 40.86 8.01Z" fill="#FFDE00" fill-opacity="1.000000" fill-rule="nonzero"/>
		</g>
	</g>
	<g mask="url(#mask1_41)">
		<g style="mix-blend-mode:normal">
			<path id="Path 6" d="M66.83 2.48C66.83 3.86 65.71 4.96 64.34 4.96C62.97 4.96 61.86 3.84 61.87 2.47C61.87 1.1 62.98 -0.01 64.36 -2.87e-6C65.73 0 66.84 1.11 66.83 2.48Z" fill="#FFDE00" fill-opacity="1.000000" fill-rule="nonzero"/>
		</g>
	</g>
	<g mask="url(#mask1_41)">
		<g style="mix-blend-mode:normal">
			<path id="Path 7" d="M48.95 18.25C48.95 19.62 47.83 20.73 46.46 20.72C45.09 20.72 43.98 19.61 43.98 18.23C43.99 16.86 45.1 15.75 46.47 15.76C47.85 15.76 48.95 16.88 48.95 18.25Z" fill="#FFDE00" fill-opacity="1.000000" fill-rule="nonzero"/>
		</g>
	</g>
	<g mask="url(#mask1_41)">
		<g style="mix-blend-mode:normal">
			<path id="Path 8" d="M41.88 33.66C44.38 33.66 46.41 31.63 46.41 29.14C46.41 26.64 44.38 24.62 41.88 24.62C39.39 24.62 37.36 26.64 37.36 29.14C37.36 31.63 39.39 33.66 41.88 33.66Z" fill="#888888" fill-opacity="1.000000" fill-rule="nonzero"/>
		</g>
	</g>
	<g mask="url(#mask1_41)">
		<g style="mix-blend-mode:normal">
			<path id="Path 9" d="M53.44 41.4C54.05 41.29 57.33 40.77 57.49 40.87C52.94 37.95 47.65 35.82 42.19 35.71C36.61 35.61 30.92 37.9 26.28 40.87C26.44 40.77 29.72 41.29 30.33 41.4C33.85 42.04 36.5 44.44 37.71 47.79C39.91 53.91 40.89 60.78 41.88 67.16C42.87 60.78 43.86 53.91 46.06 47.79C47.27 44.44 49.92 42.04 53.44 41.4Z" fill="#888888" fill-opacity="1.000000" fill-rule="nonzero"/>
		</g>
	</g>
	<g mask="url(#mask1_41)">
		<g style="mix-blend-mode:normal">
			<path id="Path 10" d="M67.2 51.95C63.57 47.73 58.49 44.23 52.83 43.72C51.09 44.29 49.87 45.46 48.83 46.82L49.29 47.21C49.98 47.98 50.62 48.79 51.03 49.74C52.08 52.07 52.2 54.66 52.41 57.16C52.35 63.19 51.68 69.37 52.97 75.33C54.57 69.95 55.94 64.11 59.72 59.73C61.29 57.79 63.93 56.51 66.42 57.27C68.92 57.77 70.64 59.79 72.86 60.88C71.64 57.55 69.47 54.65 67.2 51.95Z" fill="#000000" fill-opacity="1.000000" fill-rule="nonzero"/>
		</g>
	</g>
	<g mask="url(#mask1_41)">
		<g style="mix-blend-mode:normal">
			<path id="Path 11" d="M63.94 45.81C66.36 45.81 68.32 43.85 68.32 41.43C68.32 39.01 66.36 37.04 63.94 37.04C61.52 37.04 59.56 39.01 59.56 41.43C59.56 43.85 61.52 45.81 63.94 45.81Z" fill="#000000" fill-opacity="1.000000" fill-rule="nonzero"/>
		</g>
	</g>
	<g mask="url(#mask1_41)">
		<g style="mix-blend-mode:normal">
			<path id="Path 12" d="M30.72 43.72C25.06 44.23 19.98 47.73 16.35 51.95C14.08 54.65 11.91 57.55 10.69 60.88C12.91 59.79 14.63 57.77 17.13 57.27C19.62 56.51 22.26 57.79 23.83 59.73C27.61 64.11 28.98 69.95 30.58 75.33C31.87 69.37 31.2 63.19 31.14 57.16C31.35 54.66 31.47 52.07 32.52 49.74C32.93 48.79 33.57 47.98 34.26 47.21L34.72 46.82C33.68 45.46 32.46 44.29 30.72 43.72Z" fill="#000000" fill-opacity="1.000000" fill-rule="nonzero"/>
		</g>
	</g>
	<g mask="url(#mask1_41)">
		<g style="mix-blend-mode:normal">
			<path id="Path 13" d="M19.61 45.81C22.03 45.81 23.99 43.85 23.99 41.43C23.99 39.01 22.03 37.04 19.61 37.04C17.19 37.04 15.23 39.01 15.23 41.43C15.23 43.85 17.19 45.81 19.61 45.81Z" fill="#000000" fill-opacity="1.000000" fill-rule="nonzero"/>
		</g>
	</g>
	<g mask="url(#mask1_41)">
		<g style="mix-blend-mode:normal">
			<path id="Path 14" d="M93.91 42.12L100.6 42.12L106.48 61.34L112.84 42.03L118.2 42.03L124.56 61.34L130.44 42.12L136.97 42.12L127.28 70.7L121.85 70.7L115.44 52.13L109.03 70.7L103.6 70.7L93.91 42.12Z" fill="#000000" fill-opacity="1.000000" fill-rule="nonzero"/>
		</g>
	</g>
	<g mask="url(#mask1_41)">
		<g style="mix-blend-mode:normal">
			<path id="Path 15" d="M135.91 59.76C135.91 53.55 140.33 48.36 146.66 48.36C153.92 48.36 157.24 54 157.24 60.16C157.24 60.65 157.2 61.22 157.16 61.78L142.04 61.78C142.64 64.58 144.59 66.04 147.35 66.04C149.42 66.04 150.92 65.39 152.62 63.81L156.15 66.93C154.12 69.45 151.2 70.99 147.27 70.99C140.74 70.99 135.91 66.41 135.91 59.76ZM151.24 57.93C150.88 55.17 149.25 53.31 146.66 53.31C144.11 53.31 142.44 55.13 141.96 57.93L151.24 57.93Z" fill="#000000" fill-opacity="1.000000" fill-rule="nonzero"/>
		</g>
	</g>
	<g mask="url(#mask1_41)">
		<g style="mix-blend-mode:normal">
			<path id="Path 16" d="M159.72 64.26C159.72 59.51 163.32 57.24 168.47 57.24C170.66 57.24 172.25 57.61 173.79 58.13L173.79 57.77C173.79 55.21 172.2 53.79 169.12 53.79C166.77 53.79 165.11 54.24 163.12 54.97L161.58 50.27C163.97 49.21 166.33 48.52 170.02 48.52C173.38 48.52 175.81 49.42 177.36 50.96C178.98 52.58 179.71 54.97 179.71 57.89L179.71 70.5L173.75 70.5L173.75 68.15C172.25 69.81 170.18 70.91 167.18 70.91C163.08 70.91 159.72 68.56 159.72 64.26ZM173.87 62.84L173.87 61.74C172.81 61.26 171.44 60.93 169.93 60.93C167.3 60.93 165.68 61.99 165.68 63.93C165.68 65.6 167.06 66.65 169.04 66.65C171.92 66.65 173.87 65.07 173.87 62.84Z" fill="#000000" fill-opacity="1.000000" fill-rule="nonzero"/>
		</g>
	</g>
	<g mask="url(#mask1_41)">
		<g style="mix-blend-mode:normal">
			<rect id="Rectangle 1" x="182.872528" y="40.904369" width="6.163994" height="29.602074" fill="#000000" fill-opacity="1.000000"/>
		</g>
	</g>
	<g mask="url(#mask1_41)">
		<g style="mix-blend-mode:normal">
			<path id="Path 17" d="M194.22 64.34L194.22 54.04L191.63 54.04L191.63 48.77L194.22 48.77L194.22 43.21L200.39 43.21L200.39 48.77L205.49 48.77L205.49 54.04L200.39 54.04L200.39 63.32C200.39 64.74 200.99 65.43 202.37 65.43C203.51 65.43 204.52 65.15 205.41 64.66L205.41 69.61C204.12 70.38 202.62 70.87 200.55 70.87C196.78 70.87 194.22 69.37 194.22 64.34Z" fill="#000000" fill-opacity="1.000000" fill-rule="nonzero"/>
		</g>
	</g>
	<g mask="url(#mask1_41)">
		<g style="mix-blend-mode:normal">
			<path id="Path 18" d="M208.41 40.9L214.58 40.9L214.58 51.85C216 50.02 217.82 48.36 220.94 48.36C225.61 48.36 228.32 51.44 228.32 56.43L228.32 70.5L222.16 70.5L222.16 58.38C222.16 55.46 220.78 53.96 218.43 53.96C216.08 53.96 214.58 55.46 214.58 58.38L214.58 70.5L208.41 70.5L208.41 40.9Z" fill="#000000" fill-opacity="1.000000" fill-rule="nonzero"/>
		</g>
	</g>
	<g mask="url(#mask1_41)">
		<g style="mix-blend-mode:normal">
			<path id="Path 19" d="M231 59.76C231 53.55 235.42 48.36 241.74 48.36C249 48.36 252.33 54 252.33 60.16C252.33 60.65 252.29 61.22 252.25 61.78L237.12 61.78C237.73 64.58 239.68 66.04 242.43 66.04C244.5 66.04 246 65.39 247.7 63.81L251.23 66.93C249.2 69.45 246.29 70.99 242.35 70.99C235.82 70.99 231 66.41 231 59.76ZM246.33 57.93C245.96 55.17 244.34 53.31 241.74 53.31C239.19 53.31 237.53 55.13 237.04 57.93L246.33 57.93Z" fill="#000000" fill-opacity="1.000000" fill-rule="nonzero"/>
		</g>
	</g>
	<g mask="url(#mask1_41)">
		<g style="mix-blend-mode:normal">
			<rect id="Rectangle 2" x="254.762726" y="40.904369" width="6.163994" height="29.602074" fill="#000000" fill-opacity="1.000000"/>
		</g>
	</g>
	<g mask="url(#mask1_41)">
		<g style="mix-blend-mode:normal">
			<path id="Path 20" d="M263.6 40.9L270.09 40.9L270.09 46.37L263.6 46.37L263.6 40.9ZM263.76 48.77L269.92 48.77L269.92 70.5L263.76 70.5L263.76 48.77Z" fill="#000000" fill-opacity="1.000000" fill-rule="nonzero"/>
		</g>
	</g>
	<g mask="url(#mask1_41)">
		<g style="mix-blend-mode:normal">
			<path id="Path 21" d="M275.92 64.34L275.92 54.04L273.33 54.04L273.33 48.77L275.92 48.77L275.92 43.21L282.09 43.21L282.09 48.77L287.2 48.77L287.2 54.04L282.09 54.04L282.09 63.32C282.09 64.74 282.7 65.43 284.07 65.43C285.21 65.43 286.22 65.15 287.12 64.66L287.12 69.61C285.82 70.38 284.32 70.87 282.25 70.87C278.48 70.87 275.92 69.37 275.92 64.34Z" fill="#000000" fill-opacity="1.000000" fill-rule="nonzero"/>
		</g>
	</g>
	<g mask="url(#mask1_41)">
		<g style="mix-blend-mode:normal">
			<path id="Path 22" d="M289.87 59.76C289.87 53.55 294.29 48.36 300.62 48.36C307.88 48.36 311.2 54 311.2 60.16C311.2 60.65 311.16 61.22 311.12 61.78L295.99 61.78C296.6 64.58 298.55 66.04 301.31 66.04C303.38 66.04 304.88 65.39 306.58 63.81L310.11 66.93C308.08 69.45 305.16 70.99 301.23 70.99C294.7 70.99 289.87 66.41 289.87 59.76ZM305.2 57.93C304.83 55.17 303.21 53.31 300.62 53.31C298.06 53.31 296.4 55.13 295.91 57.93L305.2 57.93Z" fill="#000000" fill-opacity="1.000000" fill-rule="nonzero"/>
		</g>
	</g>
	<g mask="url(#mask1_41)">
		<g style="mix-blend-mode:normal">
			<path id="Path 23" d="M323.85 41.91L311.68 70.5L318.05 70.5L320.64 64.14L332.64 64.14L335.24 70.5L341.77 70.5L329.6 41.91L323.85 41.91ZM322.87 58.62L326.64 49.42L330.41 58.62L322.87 58.62Z" fill="#D1AA2A" fill-opacity="1.000000" fill-rule="nonzero"/>
		</g>
	</g>
	<g mask="url(#mask1_41)">
		<g style="mix-blend-mode:normal">
			<path id="Path 24" d="M358.76 51.6C357.3 49.86 355.27 48.36 351.99 48.36C346.84 48.36 342.09 52.33 342.09 59.59C342.09 66.85 346.92 70.91 351.99 70.91C355.19 70.91 357.26 69.41 358.76 67.38L358.76 70.5L364.92 70.5L364.92 40.9L358.76 40.9L358.76 51.6ZM358.84 59.67C358.84 63.28 356.45 65.68 353.57 65.68C350.69 65.68 348.25 63.28 348.25 59.67C348.25 56.02 350.69 53.59 353.57 53.59C356.45 53.59 358.84 56.07 358.84 59.67Z" fill="#D1AA2A" fill-opacity="1.000000" fill-rule="nonzero"/>
		</g>
	</g>
	<g mask="url(#mask1_41)">
		<g style="mix-blend-mode:normal">
			<path id="Path 25" d="M378.26 63.32L373.39 48.77L366.87 48.77L375.42 70.66L381.02 70.66L389.57 48.77L383.17 48.77L378.26 63.32Z" fill="#D1AA2A" fill-opacity="1.000000" fill-rule="nonzero"/>
		</g>
	</g>
	<g mask="url(#mask1_41)">
		<g style="mix-blend-mode:normal">
			<rect id="Rectangle 3" x="391.806549" y="48.771191" width="6.163906" height="21.735338" fill="#D1AA2A" fill-opacity="1.000000"/>
		</g>
	</g>
	<g mask="url(#mask1_41)">
		<g style="mix-blend-mode:normal">
			<rect id="Rectangle 4" x="391.643951" y="40.904278" width="6.488317" height="5.474386" fill="#D1AA2A" fill-opacity="1.000000"/>
		</g>
	</g>
	<g mask="url(#mask1_41)">
		<g style="mix-blend-mode:normal">
			<path id="Path 26" d="M410.7 57.36C408.35 56.55 406.28 55.98 406.28 54.77C406.28 53.92 407.05 53.19 408.55 53.19C410.13 53.19 412.28 53.96 414.43 55.21L416.78 50.96C414.43 49.37 411.43 48.44 408.67 48.44C404.29 48.44 400.72 55.34 400.72 55.34C400.72 55.34 404.17 61.05 407.21 61.95C409.6 62.68 411.71 63.12 411.71 64.46C411.71 65.43 410.9 66.16 409.12 66.16C407.09 66.16 404.62 65.27 402.26 63.57L399.63 67.62C402.51 69.89 405.91 70.91 408.95 70.91C413.66 70.91 417.27 68.72 417.27 63.89C417.27 59.92 413.74 58.38 410.7 57.36Z" fill="#D1AA2A" fill-opacity="1.000000" fill-rule="nonzero"/>
		</g>
	</g>
	<g mask="url(#mask1_41)">
		<g style="mix-blend-mode:normal">
			<path id="Path 27" d="M430.81 48.36C424.04 48.36 419.01 53.43 419.01 59.67C419.01 65.92 424 70.99 430.73 70.99C437.5 70.99 442.53 65.92 442.53 59.67C442.53 53.43 437.54 48.36 430.81 48.36ZM436.45 59.76C436.45 62.96 434.34 65.68 430.81 65.68C427.4 65.68 425.09 62.88 425.09 59.67C425.09 56.47 427.2 53.67 430.73 53.67C434.14 53.67 436.45 56.55 436.45 59.76Z" fill="#D1AA2A" fill-opacity="1.000000" fill-rule="nonzero"/>
		</g>
	</g>
	<g mask="url(#mask1_41)">
		<g style="mix-blend-mode:normal">
			<path id="Path 28" d="M450.72 53.15L450.72 48.77L444.55 48.77L444.55 70.5L450.72 70.5L450.72 62.47C450.72 57.28 453.23 54.81 457.33 54.81L457.65 54.81L457.65 48.36C454 48.2 451.97 50.14 450.72 53.15Z" fill="#D1AA2A" fill-opacity="1.000000" fill-rule="nonzero"/>
		</g>
	</g>
	<g mask="url(#mask1_41)">
		<g style="mix-blend-mode:normal">
			<path id="Path 29" d="M469.25 57.36C466.9 56.55 464.83 55.98 464.83 54.77C464.83 53.92 465.6 53.19 467.1 53.19C468.68 53.19 470.83 53.96 472.98 55.21L475.33 50.96C472.98 49.37 469.98 48.44 467.22 48.44C462.84 48.44 459.27 50.92 459.27 55.34C459.27 59.55 462.72 61.05 465.76 61.95C468.15 62.68 470.26 63.12 470.26 64.46C470.26 65.43 469.45 66.16 467.67 66.16C465.64 66.16 463.17 65.27 460.81 63.57L458.18 67.62C461.06 69.89 464.46 70.91 467.5 70.91C472.21 70.91 475.82 68.72 475.82 63.89C475.82 59.92 472.29 58.38 469.25 57.36Z" fill="#D1AA2A" fill-opacity="1.000000" fill-rule="nonzero"/>
		</g>
	</g>
	<g mask="url(#mask1_41)">
		<g style="mix-blend-mode:normal">
			<path id="Path 30" d="M345.16 84.25C345.16 81.92 346.75 80.57 348.43 80.57C349.58 80.57 350.32 81.16 350.82 81.81L350.82 78.03L352.43 78.03L352.43 87.75L350.82 87.75L350.82 86.58C350.3 87.31 349.57 87.89 348.43 87.89C346.78 87.89 345.16 86.58 345.16 84.25ZM350.85 84.25C350.85 82.89 349.89 81.97 348.81 81.97C347.71 81.97 346.79 82.82 346.79 84.22C346.79 85.58 347.72 86.5 348.81 86.5C349.89 86.5 350.85 85.59 350.85 84.25Z" fill="#888888" fill-opacity="1.000000" fill-rule="nonzero"/>
		</g>
	</g>
	<g mask="url(#mask1_41)">
		<g style="mix-blend-mode:normal">
			<path id="Path 31" d="M354.85 84.27C354.85 82.26 356.45 80.57 358.61 80.57C360.76 80.57 362.35 82.21 362.35 84.22C362.35 86.22 360.75 87.91 358.58 87.91C356.44 87.91 354.85 86.27 354.85 84.27ZM360.73 84.27C360.73 83.04 359.84 81.98 358.58 81.98C357.29 81.98 356.46 83 356.46 84.22C356.46 85.45 357.35 86.51 358.61 86.51C359.91 86.51 360.73 85.49 360.73 84.27Z" fill="#888888" fill-opacity="1.000000" fill-rule="nonzero"/>
		</g>
	</g>
	<g mask="url(#mask1_41)">
		<g style="mix-blend-mode:normal">
			<path id="Path 32" d="M369.9 85.8L369.9 82.1L369.01 82.1L369.01 80.72L369.9 80.72L369.9 78.79L371.51 78.79L371.51 80.72L373.4 80.72L373.4 82.1L371.51 82.1L371.51 85.55C371.51 86.18 371.83 86.43 372.38 86.43C372.74 86.43 373.06 86.35 373.38 86.19L373.38 87.51C372.98 87.73 372.52 87.87 371.92 87.87C370.74 87.87 369.9 87.35 369.9 85.8Z" fill="#888888" fill-opacity="1.000000" fill-rule="nonzero"/>
		</g>
	</g>
	<g mask="url(#mask1_41)">
		<g style="mix-blend-mode:normal">
			<path id="Path 33" d="M375.82 78.03L377.43 78.03L377.43 81.81C377.89 81.15 378.54 80.57 379.63 80.57C381.21 80.57 382.13 81.64 382.13 83.28L382.13 87.75L380.52 87.75L380.52 83.75C380.52 82.66 379.98 82.04 379.02 82.04C378.09 82.04 377.43 82.69 377.43 83.78L377.43 87.75L375.82 87.75L375.82 78.03Z" fill="#888888" fill-opacity="1.000000" fill-rule="nonzero"/>
		</g>
	</g>
	<g mask="url(#mask1_41)">
		<g style="mix-blend-mode:normal">
			<path id="Path 34" d="M384.49 84.26C384.49 82.25 385.91 80.57 387.92 80.57C390.16 80.57 391.29 82.33 391.29 84.35C391.29 84.5 391.27 84.65 391.26 84.81L386.1 84.81C386.27 85.95 387.08 86.59 388.12 86.59C388.9 86.59 389.46 86.3 390.02 85.75L390.97 86.59C390.3 87.39 389.38 87.91 388.09 87.91C386.06 87.91 384.49 86.43 384.49 84.26ZM389.69 83.74C389.58 82.7 388.97 81.89 387.91 81.89C386.92 81.89 386.23 82.65 386.08 83.74L389.69 83.74Z" fill="#888888" fill-opacity="1.000000" fill-rule="nonzero"/>
		</g>
	</g>
	<g mask="url(#mask1_41)">
		<g style="mix-blend-mode:normal">
			<path id="Path 35" d="M398.5 80.72L400.11 80.72L400.11 82.3C400.55 81.25 401.36 80.53 402.6 80.59L402.6 82.29C401.18 82.29 400.11 83.21 400.11 85.07L400.11 87.75L398.5 87.75L398.5 80.72Z" fill="#888888" fill-opacity="1.000000" fill-rule="nonzero"/>
		</g>
	</g>
	<g mask="url(#mask1_41)">
		<g style="mix-blend-mode:normal">
			<path id="Path 36" d="M404.82 78.11L406.55 78.11L406.55 79.64L404.82 79.64L404.82 78.11ZM404.88 80.72L406.5 80.72L406.5 87.75L404.88 87.75L404.88 80.72Z" fill="#888888" fill-opacity="1.000000" fill-rule="nonzero"/>
		</g>
	</g>
	<g mask="url(#mask1_41)">
		<g style="mix-blend-mode:normal">
			<path id="Path 37" d="M409.38 89.07L409.98 87.85C410.73 88.32 411.52 88.6 412.48 88.6C413.92 88.6 414.71 87.85 414.71 86.44L414.71 85.9C414.12 86.66 413.39 87.19 412.23 87.19C410.58 87.19 409.04 85.96 409.04 83.9C409.04 81.83 410.59 80.57 412.23 80.57C413.41 80.57 414.15 81.12 414.69 81.77L414.69 80.72L416.3 80.72L416.3 86.31C416.3 87.5 416 88.37 415.41 88.96C414.77 89.6 413.79 89.9 412.52 89.9C411.36 89.9 410.29 89.61 409.38 89.07ZM414.72 83.9C414.72 82.74 413.77 81.93 412.66 81.93C411.54 81.93 410.66 82.7 410.66 83.86C410.66 85.02 411.55 85.83 412.66 85.83C413.77 85.83 414.72 85.03 414.72 83.9Z" fill="#888888" fill-opacity="1.000000" fill-rule="nonzero"/>
		</g>
	</g>
	<g mask="url(#mask1_41)">
		<g style="mix-blend-mode:normal">
			<path id="Path 38" d="M419.11 78.03L420.72 78.03L420.72 81.81C421.17 81.15 421.82 80.57 422.91 80.57C424.5 80.57 425.42 81.64 425.42 83.28L425.42 87.75L423.81 87.75L423.81 83.75C423.81 82.66 423.26 82.04 422.3 82.04C421.37 82.04 420.72 82.69 420.72 83.78L420.72 87.75L419.11 87.75L419.11 78.03Z" fill="#888888" fill-opacity="1.000000" fill-rule="nonzero"/>
		</g>
	</g>
	<g mask="url(#mask1_41)">
		<g style="mix-blend-mode:normal">
			<path id="Path 39" d="M428.49 85.8L428.49 82.1L427.6 82.1L427.6 80.72L428.49 80.72L428.49 78.79L430.1 78.79L430.1 80.72L431.99 80.72L431.99 82.1L430.1 82.1L430.1 85.55C430.1 86.18 430.42 86.43 430.96 86.43C431.32 86.43 431.64 86.35 431.96 86.19L431.96 87.51C431.56 87.73 431.11 87.87 430.51 87.87C429.33 87.87 428.49 87.35 428.49 85.8Z" fill="#888888" fill-opacity="1.000000" fill-rule="nonzero"/>
		</g>
	</g>
	<g mask="url(#mask1_41)">
		<g style="mix-blend-mode:normal">
			<path id="Path 40" d="M439.53 85.8L439.53 82.1L438.64 82.1L438.64 80.72L439.53 80.72L439.53 78.79L441.14 78.79L441.14 80.72L443.03 80.72L443.03 82.1L441.14 82.1L441.14 85.55C441.14 86.18 441.46 86.43 442.01 86.43C442.37 86.43 442.69 86.35 443.01 86.19L443.01 87.51C442.61 87.73 442.16 87.87 441.56 87.87C440.37 87.87 439.53 87.35 439.53 85.8Z" fill="#888888" fill-opacity="1.000000" fill-rule="nonzero"/>
		</g>
	</g>
	<g mask="url(#mask1_41)">
		<g style="mix-blend-mode:normal">
			<path id="Path 41" d="M445.46 78.03L447.07 78.03L447.07 81.81C447.52 81.15 448.17 80.57 449.26 80.57C450.85 80.57 451.76 81.64 451.76 83.28L451.76 87.75L450.15 87.75L450.15 83.75C450.15 82.66 449.61 82.04 448.65 82.04C447.72 82.04 447.07 82.69 447.07 83.78L447.07 87.75L445.46 87.75L445.46 78.03Z" fill="#888888" fill-opacity="1.000000" fill-rule="nonzero"/>
		</g>
	</g>
	<g mask="url(#mask1_41)">
		<g style="mix-blend-mode:normal">
			<path id="Path 42" d="M454.53 78.11L456.26 78.11L456.26 79.64L454.53 79.64L454.53 78.11ZM454.6 80.72L456.21 80.72L456.21 87.75L454.6 87.75L454.6 80.72Z" fill="#888888" fill-opacity="1.000000" fill-rule="nonzero"/>
		</g>
	</g>
	<g mask="url(#mask1_41)">
		<g style="mix-blend-mode:normal">
			<path id="Path 43" d="M459.11 80.72L460.72 80.72L460.72 81.81C461.17 81.15 461.82 80.57 462.91 80.57C464.5 80.57 465.42 81.64 465.42 83.28L465.42 87.75L463.81 87.75L463.81 83.75C463.81 82.66 463.26 82.04 462.3 82.04C461.37 82.04 460.72 82.69 460.72 83.78L460.72 87.75L459.11 87.75L459.11 80.72Z" fill="#888888" fill-opacity="1.000000" fill-rule="nonzero"/>
		</g>
	</g>
	<g mask="url(#mask1_41)">
		<g style="mix-blend-mode:normal">
			<path id="Path 44" d="M468.14 89.07L468.74 87.85C469.49 88.32 470.29 88.6 471.24 88.6C472.68 88.6 473.47 87.85 473.47 86.44L473.47 85.9C472.88 86.66 472.15 87.19 470.99 87.19C469.34 87.19 467.8 85.96 467.8 83.9C467.8 81.83 469.35 80.57 470.99 80.57C472.18 80.57 472.91 81.12 473.45 81.77L473.45 80.72L475.06 80.72L475.06 86.31C475.06 87.5 474.76 88.37 474.17 88.96C473.53 89.6 472.55 89.9 471.28 89.9C470.13 89.9 469.05 89.61 468.14 89.07ZM473.48 83.9C473.48 82.74 472.54 81.93 471.42 81.93C470.3 81.93 469.42 82.7 469.42 83.86C469.42 85.02 470.31 85.83 471.42 85.83C472.54 85.83 473.48 85.03 473.48 83.9Z" fill="#888888" fill-opacity="1.000000" fill-rule="nonzero"/>
		</g>
	</g>
</svg>
